<svg xmlns="http://www.w3.org/2000/svg" width="61" height="28" viewBox="0 0 61 28"><defs><style>.a,.b{fill:#9c6;}.b{font-size:16px;font-family:Helvetica-Bold, Helvetica;font-weight:700;}</style></defs><g transform="translate(0 0)"><path class="a" d="M29.062,75.94c-2.379,4.07-.867,10.247,1.764,13.992,1.313,1.872,2.643,3.553,4.464,3.553l.1,0a5.575,5.575,0,0,0,2.072-.544,5.74,5.74,0,0,1,2.454-.574,5.4,5.4,0,0,1,2.336.555,5.007,5.007,0,0,0,2.238.529c2.051-.038,3.311-1.851,4.422-3.451a15.2,15.2,0,0,0,1.938-3.912l.008-.025a.226.226,0,0,0-.123-.279l-.017-.007a5.808,5.808,0,0,1-3.564-5.309,5.959,5.959,0,0,1,2.86-4.988l.023-.014a.227.227,0,0,0,.1-.146.225.225,0,0,0-.036-.173,6.689,6.689,0,0,0-5.236-2.8c-.149-.015-.3-.022-.457-.022a9.234,9.234,0,0,0-3.286.809,5.34,5.34,0,0,1-1.574.464,5.207,5.207,0,0,1-1.628-.469,7.981,7.981,0,0,0-2.87-.719h-.073A7.052,7.052,0,0,0,29.062,75.94Z" transform="translate(-27.875 -65.485)"/><path class="a" d="M155.154,0a6.582,6.582,0,0,0-4.345,2.229A6.167,6.167,0,0,0,149.248,6.8a.236.236,0,0,0,.216.2c.1.008.2.012.305.012a5.567,5.567,0,0,0,4.1-2.1A6.5,6.5,0,0,0,155.4.211.238.238,0,0,0,155.154,0Z" transform="translate(-138.111 0)"/></g><text class="b" transform="translate(46 19)"><tspan x="-14.234" y="0">Pay</tspan></text></svg>