<svg xmlns="http://www.w3.org/2000/svg" width="194" height="53" viewBox="0 0 194 53"><defs><style>.a{fill:#d8d8d8;}.b{fill:#2b323f;}.c{fill:#fff;}</style></defs><g transform="translate(-0.493 -0.313)"><rect class="a" width="194" height="53" transform="translate(0.493 0.313)"/><rect class="b" width="194" height="53" transform="translate(0.493 0.313)"/><g transform="translate(27.726 8.586)"><path class="c" d="M35.018,23.22H32.176V9.422c0-1.33-.036-2.748-.106-4.212h2.5l.16,2.028h.053a5.06,5.06,0,0,1,8.1-.5,7.1,7.1,0,0,1,1.512,4.714,7.3,7.3,0,0,1-1.765,5.159A5.178,5.178,0,0,1,38.7,18.3a3.936,3.936,0,0,1-3.633-1.817h-.053v6.74ZM38.176,7.21a2.961,2.961,0,0,0-1.909.7A3.247,3.247,0,0,0,35.15,9.739a3.77,3.77,0,0,0-.132.867v2.134a3.443,3.443,0,0,0,.853,2.357,2.86,2.86,0,0,0,2.226.961,2.923,2.923,0,0,0,2.5-1.237,5.472,5.472,0,0,0,.9-3.266,5.29,5.29,0,0,0-.844-3.081A2.922,2.922,0,0,0,38.176,7.21ZM17.456,23.22V9.422c0-1.4-.035-2.812-.1-4.212h2.5l.159,2.028h.054A4.756,4.756,0,0,1,24.38,4.947a4.768,4.768,0,0,1,3.778,1.79,7.094,7.094,0,0,1,1.515,4.714,7.3,7.3,0,0,1-1.764,5.159A5.178,5.178,0,0,1,23.986,18.3a3.937,3.937,0,0,1-3.634-1.817H20.3v6.74H17.456Zm6-16.01a2.946,2.946,0,0,0-1.908.7,3.251,3.251,0,0,0-1.119,1.831,3.7,3.7,0,0,0-.132.867v2.134a3.431,3.431,0,0,0,.856,2.357,2.851,2.851,0,0,0,2.224.961,2.919,2.919,0,0,0,2.5-1.237,5.47,5.47,0,0,0,.9-3.266,5.3,5.3,0,0,0-.843-3.081A2.923,2.923,0,0,0,23.459,7.21ZM78.01,18.3a5.75,5.75,0,0,1-4.487-1.868,6.836,6.836,0,0,1-1.672-4.713,6.976,6.976,0,0,1,1.725-4.869,5.986,5.986,0,0,1,4.646-1.9A5.868,5.868,0,0,1,82.75,6.818,6.757,6.757,0,0,1,84.384,11.5,7.048,7.048,0,0,1,82.7,16.347,6.04,6.04,0,0,1,78.01,18.3Zm.109-11.268a2.864,2.864,0,0,0-2.607,1.53,5.9,5.9,0,0,0-.763,3.09,5.774,5.774,0,0,0,.763,3.035,2.906,2.906,0,0,0,5.134-.028,5.788,5.788,0,0,0,.788-3.062,5.783,5.783,0,0,0-.763-3.037A2.82,2.82,0,0,0,78.119,7.028ZM54.436,18.269a8.5,8.5,0,0,1-4.6-1.105l.658-2.369a7.827,7.827,0,0,0,4.11,1.133,3.9,3.9,0,0,0,2.5-.725A2.377,2.377,0,0,0,58,13.263a2.482,2.482,0,0,0-.737-1.818,6.9,6.9,0,0,0-2.449-1.373c-3.092-1.152-4.659-2.864-4.659-5.089A4.521,4.521,0,0,1,51.79,1.4,6.468,6.468,0,0,1,56.134,0a8.662,8.662,0,0,1,4.028.843l-.71,2.318a7.026,7.026,0,0,0-3.4-.816,3.448,3.448,0,0,0-2.342.738A2.11,2.11,0,0,0,53,4.689a2.178,2.178,0,0,0,.815,1.738A9.3,9.3,0,0,0,56.4,7.8a8.787,8.787,0,0,1,3.37,2.157,4.523,4.523,0,0,1,1.078,3.077,4.754,4.754,0,0,1-1.576,3.685A7.023,7.023,0,0,1,54.436,18.269Zm13.466,0a3.432,3.432,0,0,1-2.634-1.026,5.071,5.071,0,0,1-.948-3.45V7.341H62.453V5.207h1.866V2.865l2.793-.843V5.207h3.134V7.344H67.112v6.213c0,1.572.558,2.369,1.659,2.369a5.034,5.034,0,0,0,1.263-.132l.079,2.159A6.481,6.481,0,0,1,67.9,18.267Zm33.439-.024a6.24,6.24,0,0,1-4.674-1.751,6.488,6.488,0,0,1-1.7-4.7A7.362,7.362,0,0,1,96.55,6.975a5.47,5.47,0,0,1,4.474-2.052,4.788,4.788,0,0,1,4.188,2.052A6.954,6.954,0,0,1,106.341,11a6.6,6.6,0,0,1-.1,1.289H97.707a3.732,3.732,0,0,0,1.237,2.9,4.25,4.25,0,0,0,2.79.894,9.468,9.468,0,0,0,3.452-.6l.445,1.973A10.723,10.723,0,0,1,101.341,18.243Zm-.529-11.35a2.711,2.711,0,0,0-2.264,1.159,4.27,4.27,0,0,0-.841,2.211h5.923a3.889,3.889,0,0,0-.552-2.184A2.492,2.492,0,0,0,100.812,6.894ZM2.949,18.007H0L5.713.26H9.241L14.981,18l-3.028,0-1.659-5.212H4.528L2.949,18.006ZM7.346,2.63c-.168.731-.436,1.794-.842,3.343L5.03,10.607H9.794l-1.5-4.634C8.133,5.491,7.849,4.428,7.4,2.63ZM89.7,18.006H86.859l.028-8.766c0-1.463-.036-2.819-.107-4.029h2.476l.1,2.448h.078A4.4,4.4,0,0,1,90.86,5.632a3.457,3.457,0,0,1,2.055-.685,4.519,4.519,0,0,1,.71.053V7.711a4.86,4.86,0,0,0-.9-.079,2.7,2.7,0,0,0-2.317,1.133,4.276,4.276,0,0,0-.712,2.527V18Z" transform="translate(39.495 15.713)"/><path class="c" d="M68.306,9.312A2.826,2.826,0,0,1,66.1,8.394a3.364,3.364,0,0,1-.82-2.315,3.426,3.426,0,0,1,.847-2.392,2.95,2.95,0,0,1,2.284-.932,2.879,2.879,0,0,1,2.224.918,3.324,3.324,0,0,1,.8,2.3,3.464,3.464,0,0,1-.828,2.381A2.969,2.969,0,0,1,68.306,9.312Zm.054-5.536a1.413,1.413,0,0,0-1.282.753A2.894,2.894,0,0,0,66.7,6.045a2.854,2.854,0,0,0,.374,1.492,1.418,1.418,0,0,0,1.269.752A1.4,1.4,0,0,0,69.6,7.524a2.845,2.845,0,0,0,.387-1.5,2.849,2.849,0,0,0-.374-1.492A1.389,1.389,0,0,0,68.36,3.776ZM56.122,9.312a2.368,2.368,0,0,1-1.888-.892,3.483,3.483,0,0,1-.75-2.315A3.662,3.662,0,0,1,54.3,3.634a2.517,2.517,0,0,1,1.941-.88,1.892,1.892,0,0,1,1.77.853h.028V0h1.4V7.476c0,.591.017,1.161.049,1.693h-1.24L58.18,8.161h-.04A2.1,2.1,0,0,1,56.122,9.312Zm.436-5.472a1.442,1.442,0,0,0-1.229.622,2.685,2.685,0,0,0-.448,1.591,2.49,2.49,0,0,0,.428,1.513,1.446,1.446,0,0,0,1.222.621,1.352,1.352,0,0,0,1.1-.519,1.726,1.726,0,0,0,.4-1.15V5.47A2.047,2.047,0,0,0,58,5.031a1.6,1.6,0,0,0-.505-.847A1.374,1.374,0,0,0,56.558,3.84ZM48.31,9.312a1.9,1.9,0,0,1-1.434-.569,1.791,1.791,0,0,1-.492-1.281A1.961,1.961,0,0,1,47.348,5.7a4.952,4.952,0,0,1,2.633-.6h.078V4.993c0-.824-.439-1.242-1.306-1.242a2.945,2.945,0,0,0-1.638.466L46.831,3.3a4.051,4.051,0,0,1,2.155-.543c1.637,0,2.468.875,2.468,2.6V7.671a10.016,10.016,0,0,0,.091,1.5H50.289l-.1-.724h-.038A2.164,2.164,0,0,1,48.31,9.312Zm1.649-3.273c-1.445,0-2.178.427-2.178,1.267a.942.942,0,0,0,.268.738.982.982,0,0,0,.683.245A1.4,1.4,0,0,0,49.587,8a1.2,1.2,0,0,0,.484-.744,1.327,1.327,0,0,0,.023-.245V6.04ZM41.65,9.312a2.82,2.82,0,0,1-2.206-.918,3.365,3.365,0,0,1-.82-2.315,3.429,3.429,0,0,1,.847-2.392,2.947,2.947,0,0,1,2.281-.932,2.893,2.893,0,0,1,2.226.918,3.326,3.326,0,0,1,.8,2.3,3.468,3.468,0,0,1-.828,2.381A2.97,2.97,0,0,1,41.65,9.312ZM41.7,3.776a1.405,1.405,0,0,0-1.282.753,2.894,2.894,0,0,0-.374,1.517,2.854,2.854,0,0,0,.374,1.492,1.418,1.418,0,0,0,1.269.752,1.4,1.4,0,0,0,1.252-.766,2.833,2.833,0,0,0,.388-1.5,2.848,2.848,0,0,0-.374-1.492A1.382,1.382,0,0,0,41.7,3.776ZM11.848,9.312a2.823,2.823,0,0,1-2.206-.918,3.365,3.365,0,0,1-.82-2.315,3.426,3.426,0,0,1,.846-2.392,2.953,2.953,0,0,1,2.284-.932,2.888,2.888,0,0,1,2.225.918,3.325,3.325,0,0,1,.8,2.3,3.469,3.469,0,0,1-.828,2.381A2.969,2.969,0,0,1,11.848,9.312ZM11.9,3.776a1.407,1.407,0,0,0-1.281.753,2.883,2.883,0,0,0-.376,1.517,2.844,2.844,0,0,0,.376,1.492,1.416,1.416,0,0,0,1.267.752,1.4,1.4,0,0,0,1.254-.766,2.845,2.845,0,0,0,.388-1.5,2.848,2.848,0,0,0-.374-1.492A1.389,1.389,0,0,0,11.9,3.776ZM87.206,9.3a1.681,1.681,0,0,1-1.293-.5A2.477,2.477,0,0,1,85.447,7.1V3.93h-.919V2.884h.919V1.732l1.369-.414V2.883h1.539V3.93H86.818V6.984c0,.772.274,1.164.815,1.164a2.411,2.411,0,0,0,.622-.065l.036,1.06A3.128,3.128,0,0,1,87.206,9.3Zm13.72-.012a3.058,3.058,0,0,1-2.294-.859A3.188,3.188,0,0,1,97.8,6.118a3.617,3.617,0,0,1,.775-2.367,2.684,2.684,0,0,1,2.2-1.008,2.347,2.347,0,0,1,2.056,1.008,3.376,3.376,0,0,1,.559,1.978,3.4,3.4,0,0,1-.052.634H99.143a1.84,1.84,0,0,0,.606,1.422,2.092,2.092,0,0,0,1.373.441,4.638,4.638,0,0,0,1.694-.3l.218.971A5.289,5.289,0,0,1,100.925,9.287Zm-.256-5.575a1.333,1.333,0,0,0-1.113.569,2.1,2.1,0,0,0-.414,1.087h2.909a1.9,1.9,0,0,0-.27-1.074A1.23,1.23,0,0,0,100.67,3.712ZM2.044,9.247A16.867,16.867,0,0,1,0,9.143V.568A15.737,15.737,0,0,1,2.406.387a5.21,5.21,0,0,1,3.454,1A4.038,4.038,0,0,1,7.166,4.6,4.394,4.394,0,0,1,5.755,8.148,5.629,5.629,0,0,1,2.044,9.247Zm.479-7.761A6.1,6.1,0,0,0,1.4,1.577V8.1a7.432,7.432,0,0,0,.944.038,3.316,3.316,0,0,0,2.476-.892,3.586,3.586,0,0,0,.875-2.6A3.215,3.215,0,0,0,4.885,2.3,3.2,3.2,0,0,0,2.523,1.486ZM36.556,9.18h-1.4l0-9.175h1.4V9.179Zm55.136-.01H90.3V0h1.4V3.788h.026a2.122,2.122,0,0,1,1.888-1.033,1.957,1.957,0,0,1,1.438.569,2.874,2.874,0,0,1,.711,2.109V9.168h-1.4V5.6c0-1.122-.426-1.691-1.266-1.691a1.34,1.34,0,0,0-1.333.98,1.779,1.779,0,0,0-.065.5V9.169Zm-16.8,0h-1.4V4.68c0-.564-.017-1.169-.049-1.8h1.227l.066.982h.038A2.062,2.062,0,0,1,75.5,3.1a2.383,2.383,0,0,1,1.269-.353,2.015,2.015,0,0,1,1.462.569A2.778,2.778,0,0,1,78.951,5.4V9.168h-1.4V5.57c0-1.1-.427-1.665-1.269-1.665a1.264,1.264,0,0,0-1.008.457,1.623,1.623,0,0,0-.388,1.078V9.169Zm-46.253,0h-1.4V4.68c0-.536-.017-1.125-.052-1.8h1.229l.065.982h.038a2.027,2.027,0,0,1,.725-.759,2.367,2.367,0,0,1,1.266-.353,2.016,2.016,0,0,1,1.463.569A2.78,2.78,0,0,1,32.7,5.4V9.168H31.3V5.57c0-1.1-.426-1.665-1.267-1.665a1.253,1.253,0,0,0-1.009.457,1.627,1.627,0,0,0-.388,1.078V9.169Zm-9.146,0H18.2L16.347,2.884h1.435l.712,2.988c.168.694.312,1.373.426,2.017h.025c.108-.545.283-1.22.52-2l.892-3H21.5l.855,2.937c.208.719.377,1.415.5,2.069h.038a19.528,19.528,0,0,1,.427-2.069l.762-2.937h1.373L23.488,9.168H22.207L21.392,6.44a20.655,20.655,0,0,1-.505-2.031h-.025a14.654,14.654,0,0,1-.505,2.031l-.865,2.729Z" transform="translate(41.184 0.453)"/><path class="c" d="M1187.909,1401.256a7.729,7.729,0,0,1,3.682-6.486,7.916,7.916,0,0,0-6.236-3.371c-2.623-.276-5.167,1.569-6.5,1.569-1.363,0-3.421-1.543-5.638-1.5a8.3,8.3,0,0,0-6.987,4.262c-3.022,5.231-.768,12.919,2.127,17.147,1.449,2.071,3.141,4.383,5.355,4.3,2.167-.089,2.977-1.381,5.591-1.381,2.591,0,3.351,1.381,5.61,1.329,2.325-.037,3.79-2.08,5.187-4.17a17.115,17.115,0,0,0,2.372-4.831A7.472,7.472,0,0,1,1187.909,1401.256Z" transform="translate(-1164.792 -1383.165)"/><path class="c" d="M1180.2,1390.67a7.61,7.61,0,0,0,1.742-5.453,7.75,7.75,0,0,0-5.011,2.592,7.243,7.243,0,0,0-1.787,5.251A6.4,6.4,0,0,0,1180.2,1390.67Z" transform="translate(-1161.352 -1385.217)"/></g></g></svg>