<svg xmlns="http://www.w3.org/2000/svg" width="195" height="53" viewBox="0 0 195 53"><defs><style>.a{fill:#d8d8d8;}.b{fill:#2b323f;}.c{fill:#fff;}</style></defs><g transform="translate(0.426 -0.313)"><rect class="a" width="195" height="53" transform="translate(-0.426 0.313)"/><rect class="b" width="195" height="53" transform="translate(-0.426 0.313)"/><g transform="translate(21.688 9.452)"><path class="c" d="M48.346,22.708A5.262,5.262,0,0,1,45.034,21.6a5.608,5.608,0,0,1-1.715-2.239l2.168-.9a3.135,3.135,0,0,0,2.859,2.019c1.924,0,3.028-1.214,3.028-3.329v-.816h-.085A3.874,3.874,0,0,1,48.3,17.617a5.677,5.677,0,0,1,0-11.344,3.934,3.934,0,0,1,2.986,1.269h.085V6.618h2.364V16.8a6.047,6.047,0,0,1-1.6,4.525A5.307,5.307,0,0,1,48.346,22.708Zm.172-14.2a3.283,3.283,0,0,0-3.158,3.459,3.259,3.259,0,0,0,3.158,3.416,3.168,3.168,0,0,0,3.028-3.416A3.193,3.193,0,0,0,48.518,8.508Zm57.689,13.821h-2.6l2.534-5.619L101.7,6.608h2.68l2.961,7.227h.085l2.852-7.227h2.767l-6.841,15.72ZM64.78,17.617a5.585,5.585,0,0,1-4.023-1.643,5.689,5.689,0,0,1-1.606-4.027A5.4,5.4,0,0,1,64.5,6.273a5.342,5.342,0,0,1,4.855,3.61l.258.643-7.582,3.137a2.868,2.868,0,0,0,2.748,1.719,3.225,3.225,0,0,0,2.794-1.569l1.934,1.29A5.656,5.656,0,0,1,64.78,17.617Zm-.193-9.151A3.042,3.042,0,0,0,62.5,9.4a3.165,3.165,0,0,0-.876,2.371l5.071-2.105A2.2,2.2,0,0,0,64.587,8.466ZM36.131,17.617a5.706,5.706,0,0,1-4.023-1.611,5.621,5.621,0,0,1-1.67-4.06,5.626,5.626,0,0,1,1.67-4.069,5.846,5.846,0,0,1,8.045,0,5.627,5.627,0,0,1,1.67,4.069,5.622,5.622,0,0,1-1.67,4.06A5.7,5.7,0,0,1,36.131,17.617Zm0-9.109a3.1,3.1,0,0,0-2.245.954,3.533,3.533,0,0,0-.956,2.485,3.209,3.209,0,1,0,6.4,0,3.534,3.534,0,0,0-.955-2.485A3.1,3.1,0,0,0,36.131,8.508Zm-12.42,9.109a5.706,5.706,0,0,1-4.023-1.611,5.622,5.622,0,0,1-1.67-4.06,5.627,5.627,0,0,1,1.67-4.069,5.848,5.848,0,0,1,8.046,0,5.626,5.626,0,0,1,1.67,4.069,5.621,5.621,0,0,1-1.67,4.06A5.706,5.706,0,0,1,23.711,17.617Zm0-9.109a3.1,3.1,0,0,0-2.244.954,3.534,3.534,0,0,0-.956,2.485,3.209,3.209,0,1,0,6.4,0,3.534,3.534,0,0,0-.956-2.485A3.1,3.1,0,0,0,23.711,8.508ZM8.939,17.617a8.944,8.944,0,0,1-6.291-2.583,8.64,8.64,0,0,1,0-12.449A8.944,8.944,0,0,1,8.939,0a8.371,8.371,0,0,1,6.037,2.429l-1.7,1.7a6.15,6.15,0,0,0-4.34-1.72A6.234,6.234,0,0,0,4.451,4.279a6.526,6.526,0,0,0,0,9.061,6.235,6.235,0,0,0,4.488,1.872,5.851,5.851,0,0,0,4.446-1.763A5.055,5.055,0,0,0,14.7,10.421H8.939V8.014h8.1a7.832,7.832,0,0,1,.13,1.5,8,8,0,0,1-2.084,5.629A8.066,8.066,0,0,1,8.939,17.617Zm86.931-.027a3.838,3.838,0,0,1-4.138-3.669,3.312,3.312,0,0,1,1.509-2.793,5.863,5.863,0,0,1,3.3-.959,5.534,5.534,0,0,1,2.595.642v-.172a2.4,2.4,0,0,0-2.616-2.145,2.331,2.331,0,0,0-2.273,1.223l-2.208-.923a4.7,4.7,0,0,1,4.438-2.553,5.416,5.416,0,0,1,3.6,1.2,4.348,4.348,0,0,1,1.462,3.416v6.391h-2.4V15.958h-.086A3.523,3.523,0,0,1,95.869,17.589Zm.989-5.407c-1.314,0-2.639.551-2.639,1.781,0,1.032,1.2,1.416,1.95,1.416a3,3,0,0,0,2.961-2.639A4.461,4.461,0,0,0,96.858,12.183Zm-6.489,5.091H87.875V.6h2.494V17.272Zm-12.815,0H75.067V.6H81.03A5.285,5.285,0,0,1,86.5,5.78a5.284,5.284,0,0,1-5.468,5.178H77.554v6.315Zm0-14.35V8.637h3.539A2.9,2.9,0,0,0,84.01,5.78a2.892,2.892,0,0,0-2.916-2.856Zm-19.6,14.35H55.458V.6h2.494V17.272Z" transform="translate(41.428 13.576)"/><path class="c" d="M37.148,7.146A4.111,4.111,0,0,1,35.969,4.18a4.115,4.115,0,0,1,1.179-2.968,4.142,4.142,0,0,1,5.861.006A4.109,4.109,0,0,1,44.193,4.18a4.112,4.112,0,0,1-1.179,2.966,4.152,4.152,0,0,1-5.866,0Zm.758-5.263a3.151,3.151,0,0,0-.887,2.3,3.152,3.152,0,0,0,.887,2.3,3.078,3.078,0,0,0,4.348,0,3.145,3.145,0,0,0,.889-2.3,3.144,3.144,0,0,0-.889-2.3,3.076,3.076,0,0,0-4.348,0ZM1.212,7.158A4.039,4.039,0,0,1,0,4.18,4.046,4.046,0,0,1,1.212,1.2,4.045,4.045,0,0,1,4.157,0,4.152,4.152,0,0,1,5.8.335a3.334,3.334,0,0,1,1.253.894l-.7.7A2.71,2.71,0,0,0,4.157.983,3.091,3.091,0,0,0,1.05,4.18,3.09,3.09,0,0,0,4.157,7.375a3.05,3.05,0,0,0,2.235-.894,2.523,2.523,0,0,0,.67-1.62h-2.9V3.9H8.034a3.463,3.463,0,0,1,.055.6A3.626,3.626,0,0,1,7.1,7.174,3.891,3.891,0,0,1,4.157,8.359,4.042,4.042,0,0,1,1.212,7.158Zm24.6,1.022H24.786v-8h1.027v8h0Zm-11.578,0H9.564v-8h4.672v.983H10.592V3.7h3.285V4.66H10.592V7.2h3.644v.983h0Zm36.5,0L46.664,1.654h-.046L46.664,3.2V8.179H45.635v-8h1.252L50.775,6.4h.044l-.044-1.541V.179H51.8v8Zm-20.36,0H29.343V1.162H27.109V.179h5.5v.983H30.372V8.178h0Zm-11.8,0H17.542V1.162H15.308V.179h5.5v.983H18.571V8.178h0Z" transform="translate(41.844)"/><path class="c" d="M984.676,1386.586l-.012.012.024-.024a1.721,1.721,0,0,1,1.179-.433,3.062,3.062,0,0,1,1.495.449l19.479,11.068,6.525,3.707c1.863,1.059,1.863,2.793,0,3.853l-6.525,3.707-.089.049-19.391,11.017a2.559,2.559,0,0,1-2.139.337,1.643,1.643,0,0,1-.534-.323l-.026-.024c-.025-.023-.049-.048-.073-.073a2.662,2.662,0,0,1-.617-1.872v-29.491a2.67,2.67,0,0,1,.617-1.873l.086-.085q-.044.041-.086.085l16.619,16.619-16.619,16.618,22.25-22.25-5.631,5.633Z" transform="translate(-983.973 -1385.775)"/></g></g></svg>