<svg xmlns="http://www.w3.org/2000/svg" width="17.5" height="14" viewBox="0 0 17.5 14"><defs><style>.a{fill:#9c6;}</style></defs><g transform="translate(0 -54.821)"><g transform="translate(0 54.821)"><path class="a" d="M17.072,55.249a1.4,1.4,0,0,0-1.03-.428H1.458a1.4,1.4,0,0,0-1.03.428A1.4,1.4,0,0,0,0,56.279V67.363a1.4,1.4,0,0,0,.428,1.03,1.4,1.4,0,0,0,1.03.428H16.042A1.463,1.463,0,0,0,17.5,67.363V56.279A1.4,1.4,0,0,0,17.072,55.249Zm-.738,12.113a.3.3,0,0,1-.292.291H1.458a.3.3,0,0,1-.292-.292V61.821H16.333v5.542Zm0-9.042H1.167V56.279a.3.3,0,0,1,.292-.291H16.042a.3.3,0,0,1,.291.291v2.042Z" transform="translate(0 -54.821)"/><rect class="a" width="2.367" height="1.183" transform="translate(2.367 10.486)"/><rect class="a" width="3.55" height="1.183" transform="translate(5.813 10.486)"/></g></g></svg>