<svg xmlns="http://www.w3.org/2000/svg" width="18.606" height="16" viewBox="0 0 18.606 16"><defs><style>.a{fill:#1b1e28;}</style></defs><g transform="translate(0 -35.857)"><g transform="translate(0 35.857)"><g transform="translate(0 0)"><path class="a" d="M18.366,49.322,10.734,36.665a1.672,1.672,0,0,0-2.863,0L.239,49.322a1.672,1.672,0,0,0,1.431,2.535H16.935a1.672,1.672,0,0,0,1.431-2.535Zm-1.031,1.089a.461.461,0,0,1-.4.234H1.671a.46.46,0,0,1-.394-.7L8.909,37.291a.46.46,0,0,1,.788,0l7.632,12.657A.461.461,0,0,1,17.335,50.412Z" transform="translate(0 -35.857)"/></g></g><g transform="translate(8.488 40.841)"><path class="a" d="M234.4,173.005c-.461,0-.82.247-.82.686,0,1.337.157,3.259.157,4.6,0,.348.3.494.663.494.27,0,.652-.146.652-.494,0-1.337.157-3.259.157-4.6A.722.722,0,0,0,234.4,173.005Z" transform="translate(-233.578 -173.005)"/></g><g transform="translate(8.454 47.393)"><path class="a" d="M233.516,353.306a.865.865,0,0,0,0,1.731.865.865,0,0,0,0-1.731Z" transform="translate(-232.651 -353.306)"/></g></g></svg>