<svg xmlns="http://www.w3.org/2000/svg" width="25" height="12" viewBox="0 0 25 12"><defs><style>.a{fill:none;}.b{fill:#465b83;}</style></defs><g transform="translate(24.828) rotate(90)"><rect class="a" width="12" height="25" transform="translate(0 -0.172)"/><path class="b" d="M0,14.875A2.066,2.066,0,0,1,2,12.75,2.129,2.129,0,0,1,2,17,2.065,2.065,0,0,1,0,14.875ZM0,8.5A2.065,2.065,0,0,1,2,6.375,2.065,2.065,0,0,1,4,8.5a2.065,2.065,0,0,1-2,2.125A2.065,2.065,0,0,1,0,8.5ZM0,2.125A2.065,2.065,0,0,1,2,0,2.065,2.065,0,0,1,4,2.125,2.064,2.064,0,0,1,2,4.25,2.065,2.065,0,0,1,0,2.125Z" transform="translate(4 3.828)"/></g></svg>