<svg xmlns="http://www.w3.org/2000/svg" width="29" height="17" viewBox="0 0 29 17"><defs><style>.a{fill:#888b95;}</style></defs><g transform="translate(0 -98.725)"><path class="a" d="M14.5,98.725c-5.541,0-10.565,2.981-14.273,7.823a1.114,1.114,0,0,0,0,1.348c3.708,4.848,8.732,7.829,14.273,7.829s10.565-2.981,14.273-7.823a1.114,1.114,0,0,0,0-1.348C25.065,101.706,20.041,98.725,14.5,98.725Zm.4,14.486a6,6,0,1,1,5.689-5.595A6.053,6.053,0,0,1,14.9,113.211Zm-.184-2.765a3.231,3.231,0,1,1,3.067-3.016A3.252,3.252,0,0,1,14.714,110.445Z" transform="translate(0 0)"/></g></svg>