<svg xmlns="http://www.w3.org/2000/svg" width="22.838" height="19.619" viewBox="0 0 22.838 19.619"><defs><style>.a{fill:#888b95;}</style></defs><g transform="translate(0 -6.952)"><g transform="translate(0 6.952)"><circle class="a" cx="2.383" cy="2.383" r="2.383" transform="translate(9.035 8.404)"/><path class="a" d="M36.854,64.556H34.831a3.055,3.055,0,0,0-3.051,3.052v2.474l.006.038.17.053a13.889,13.889,0,0,0,4.149.669,8.528,8.528,0,0,0,3.622-.68l.159-.081H39.9V67.607A3.053,3.053,0,0,0,36.854,64.556Z" transform="translate(-24.424 -51.223)"/><circle class="a" cx="3.845" cy="3.845" r="3.845" transform="translate(2.708 0)"/><path class="a" d="M57.585,14.642A3.845,3.845,0,1,0,53.74,10.8,3.845,3.845,0,0,0,57.585,14.642Z" transform="translate(-41.301 -6.952)"/><path class="a" d="M9.55,46.311A2.86,2.86,0,0,1,10,41.654a4.886,4.886,0,0,0-1.811-.35H4.922A4.928,4.928,0,0,0,0,46.227v3.991l.01.062.275.085a22.446,22.446,0,0,0,6.587,1.078V49.737A3.539,3.539,0,0,1,9.55,46.311Z" transform="translate(0 -33.353)"/><path class="a" d="M60.554,41.3H57.292a4.885,4.885,0,0,0-1.811.35,2.86,2.86,0,0,1,.447,4.657,3.533,3.533,0,0,1,2.677,3.427v1.7a22.45,22.45,0,0,0,6.587-1.078l.275-.085.01-.062V46.226A4.93,4.93,0,0,0,60.554,41.3Z" transform="translate(-42.639 -33.352)"/></g></g></svg>