<svg xmlns="http://www.w3.org/2000/svg" xmlns:xlink="http://www.w3.org/1999/xlink" width="350" height="350" viewBox="0 0 350 350"><defs><style>.a{fill:url(#a);}.b{opacity:0.7;mix-blend-mode:screen;fill:url(#b);}.b,.d{isolation:isolate;}.c{fill:url(#c);}.d{fill:#9c6;mix-blend-mode:difference;}.e{fill:none;stroke:#a4e564;stroke-linecap:round;stroke-miterlimit:10;stroke-width:2px;}</style><linearGradient id="a" x1="0.709" y1="-0.009" x2="0.085" y2="0.937" gradientUnits="objectBoundingBox"><stop offset="0" stop-color="#9c6"/><stop offset="0.441" stop-color="#568014" stop-opacity="0.553"/><stop offset="1" stop-color="#141136" stop-opacity="0"/></linearGradient><radialGradient id="b" cx="0.5" cy="0.5" r="0.551" gradientTransform="translate(0)" gradientUnits="objectBoundingBox"><stop offset="0" stop-color="#272f1f" stop-opacity="0"/><stop offset="0.66" stop-color="#21271a" stop-opacity="0"/><stop offset="0.736" stop-color="#9c6" stop-opacity="0.702"/><stop offset="0.749" stop-color="#6ea03d" stop-opacity="0.702"/><stop offset="0.777" stop-color="#43691e" stop-opacity="0.702"/><stop offset="0.806" stop-color="#538125" stop-opacity="0.31"/><stop offset="0.837" stop-color="#23380f" stop-opacity="0.31"/><stop offset="0.869" stop-color="#0b1204" stop-opacity="0.11"/><stop offset="0.905" stop-color="#384312" stop-opacity="0.047"/><stop offset="0.945" stop-color="#2d3913" stop-opacity="0.012"/><stop offset="1" stop-color="#2d3611" stop-opacity="0"/></radialGradient><radialGradient id="c" cx="0.5" cy="0.5" r="0.551" gradientUnits="objectBoundingBox"><stop offset="0" stop-color="#9c6" stop-opacity="0"/><stop offset="0.164" stop-color="#263813" stop-opacity="0.012"/><stop offset="0.294" stop-color="#2e4012" stop-opacity="0.051"/><stop offset="0.413" stop-color="#192b08" stop-opacity="0.122"/><stop offset="0.526" stop-color="#2c4b0c" stop-opacity="0.212"/><stop offset="0.633" stop-color="#345215" stop-opacity="0.31"/><stop offset="0.737" stop-color="#406020" stop-opacity="0.349"/><stop offset="0.838" stop-color="#557b2f" stop-opacity="0.451"/><stop offset="0.935" stop-color="#9c6" stop-opacity="0.502"/><stop offset="0.999" stop-color="#9c6" stop-opacity="0.596"/><stop offset="1" stop-color="#0ef"/></radialGradient></defs><g transform="translate(-905 -275)"><path class="a" d="M413.674,196.887c-21.558-3.919-31.228-13.719-31.228-13.719s-9.669,9.8-31.227,13.719-32.338-2.45-32.338-2.45c2.45,94.073,7.09,101.913,63.565,140.13,56.476-38.217,61.115-46.057,63.565-140.13C446.011,194.437,435.233,200.807,413.674,196.887Zm-26.993,56.825L387.1,275.1H377.79l.421-21.391a8.582,8.582,0,1,1,8.47,0Z" transform="translate(697.554 191.132)"/><ellipse class="b" cx="175" cy="175" rx="175" ry="175" transform="translate(905 275)"/><ellipse class="c" cx="141.906" cy="141.906" rx="141.906" ry="141.906" transform="translate(938.094 308.094)"/><path class="d" d="M323.021,195.953v16.185l8.219,8.219v53.068a.692.692,0,0,1,.527.666.7.7,0,1,1-1.4,0,.692.692,0,0,1,.527-.666V220.5l-8.219-8.219V195.84C322.787,195.878,322.9,195.916,323.021,195.953ZM345.7,282.067a.7.7,0,0,0,.7-.7.694.694,0,0,0-.527-.667V227.776l8.219-8.219V196.149l-.35.076v23.187l-8.219,8.219V280.7a.692.692,0,0,0-.527.666A.7.7,0,0,0,345.7,282.067Zm4.643-85.2c-.119.02-.232.035-.35.054v20.5l-8.219,8.219v36.208l-3.972,3.972v5.637a.691.691,0,0,0-.527.667.7.7,0,1,0,1.4,0,.693.693,0,0,0-.527-.667v-5.492l3.972-3.972V225.779l8.219-8.219Zm-31.465-2.588c.01.381.02.749.031,1.126v-1.109Zm3.79,46.813a.691.691,0,0,0-.527.666.7.7,0,1,0,1.4,0,.692.692,0,0,0-.527-.666V223.707l-3.27-3.269c.008.172.015.345.023.517l2.9,2.9Zm22.857-43.55v14.573a.7.7,0,0,0-.527.667.7.7,0,1,0,1.4,0,.693.693,0,0,0-.527-.667V197.5Zm86.18,55.512V197.814c-.118.009-.23.02-.35.028v55.064l-8.219,8.219v41.252c.119-.131.232-.265.35-.4V261.27Zm4.109,1.675V197.352c-.111.017-.236.031-.35.048v57.183l-8.219,8.219V297.39c.117-.155.234-.31.35-.466V262.946Zm-.35,11.424v16.9c.119-.281.234-.563.35-.848V266.3l5.781-5.78c.032-.194.062-.394.094-.589ZM412.6,266.4l-8.219-8.219V194.5c-.119-.035-.232-.072-.35-.109v63.935l8.219,8.219v36.207l3.972,3.972v2.555c.118-.107.233-.214.35-.321v-2.38L412.6,302.61Zm-11.969-6.222V193.266c-.118-.042-.234-.084-.35-.127v67.186l8.219,8.219V315.8l.35-.275V268.4ZM319.5,214.407c.007.17.014.344.019.513l7.257,7.257v53.547c.114.372.232.736.35,1.1V222.032Zm77.207,47.6V191.736l-.35-.153v70.569l8.22,8.219v12.7a.692.692,0,0,0-.357.6.7.7,0,1,0,.706-.7V270.225Zm30.537-32.088a.693.693,0,0,0-.527.667.7.7,0,1,0,1.4,0,.693.693,0,0,0-.527-.667V198c-.112,0-.237-.006-.35-.006v9.231L408.5,225.968v26.914a.694.694,0,0,0-.527.667.7.7,0,1,0,1.4,0,.692.692,0,0,0-.527-.666v-26.77l18.4-18.4Zm-10.584-24.14-7.432-7.432V195.8l-.349-.085v11.616a.692.692,0,0,0-.528.667.7.7,0,0,0,1.4,0,.692.692,0,0,0-.528-.667v-8.486l7.082,7.082v4.625l-6.9,6.9a.672.672,0,0,0-.351-.109.7.7,0,1,0,.7.7.684.684,0,0,0-.1-.345l7.008-7.008Zm7.259-7.869c-.411-.019-.838-.05-1.262-.077a.7.7,0,0,0,.652.452A.69.69,0,0,0,423.924,197.91Zm16-1.4c-.112.028-.233.057-.349.085v59.662l-8.22,8.219v17.382a.691.691,0,0,0-.527.666.7.7,0,1,0,1.4,0,.691.691,0,0,0-.527-.666V264.621l8.219-8.219Zm4.109-1.318c-.105.042-.234.088-.349.133v48.212c.121-1.367.239-2.758.349-4.185V212.692h1.415l.012-.35h-1.427Zm-73.975.23V190.9l-.35.161v4.218l-8.219,8.219v30.082l8.219,8.219v32.542a.694.694,0,0,0-.5.663.7.7,0,1,0,1.4,0,.691.691,0,0,0-.55-.672V241.653l-8.22-8.22V203.642ZM421.7,205.1a.7.7,0,1,0,.7-.7.682.682,0,0,0-.348.106l-7.671-7.671c-.2-.034-.385-.056-.587-.092l8.009,8.009A.685.685,0,0,0,421.7,205.1Zm-29.159,25.482h.35V189.962l-.35-.179Zm-4.109-13.31h.349v-28.69l-2.691-2.657c-.837-.588-1.523-1.111-2.068-1.551l4.411,4.354Zm-3.935,99.2a.7.7,0,0,0,.7-.7.692.692,0,0,0-.528-.667V282.566l8.219-8.219V244.265l-8.22-8.219V202.769l-10.226-10.226v-3.879c-.117.066-.231.131-.35.2v3.827l10.227,10.226v33.277l2.553,2.553a8.625,8.625,0,0,1,2.926,2.925l2.74,2.741V274.2l-8.219,8.219V315.1a.692.692,0,0,0-.528.667A.7.7,0,0,0,384.493,316.472Zm-26.646-94.919v-26.3l-.349.092v26.065l-8.22,8.22v12.319a.693.693,0,0,0-.527.667.7.7,0,1,0,1.4,0,.691.691,0,0,0-.527-.667V229.772Z" transform="translate(697.555 191.314)"/><path class="e" d="M413.674,196.887c-21.558-3.919-31.228-13.719-31.228-13.719s-9.669,9.8-31.227,13.719-32.338-2.45-32.338-2.45c2.45,94.073,7.09,101.913,63.565,140.13,56.476-38.217,61.115-46.057,63.565-140.13C446.011,194.437,435.233,200.807,413.674,196.887Zm-26.993,56.825L387.1,275.1H377.79l.421-21.391a8.582,8.582,0,1,1,8.47,0Z" transform="translate(697.554 191.132)"/></g></svg>