<svg xmlns="http://www.w3.org/2000/svg" width="16" height="16" viewBox="0 0 16 16"><defs><style>.a{fill:#1b1e28;}</style></defs><path class="a" d="M8,0a8,8,0,1,0,8,8A8.009,8.009,0,0,0,8,0ZM8,14.545A6.545,6.545,0,1,1,14.545,8,6.553,6.553,0,0,1,8,14.545Z"/><path class="a" d="M145.972,70a.97.97,0,1,0,.969.97A.971.971,0,0,0,145.972,70Z" transform="translate(-137.972 -66.606)"/><path class="a" d="M150.727,140a.727.727,0,0,0-.727.727v4.364a.727.727,0,0,0,1.455,0v-4.364A.727.727,0,0,0,150.727,140Z" transform="translate(-142.727 -133.212)"/></svg>