<svg xmlns="http://www.w3.org/2000/svg" xmlns:xlink="http://www.w3.org/1999/xlink" width="521.492" height="360" viewBox="0 0 521.492 360"><defs><style>.a{fill:#b0b4c1;opacity:0.2;}.b{fill:#9c6;}.c{fill:#3f3d56;}.d{fill:#707481;}.e{fill:#fa5959;}.e,.f,.g{opacity:0.8;}.f{fill:#fed253;}.g{fill:#8ccf4d;}.h{opacity:0.05;}.i{fill:#667e4e;}.j{fill:#fff;}.k{fill:#6575f7;}.l{fill:#888b95;}.m{fill:url(#a);}.n{fill:#fbbebe;}.o,.r{opacity:0.1;}.p{fill:#6c63ff;}.q{fill:#33313f;}</style><linearGradient id="a" y1="0.5" x2="1" y2="0.5" gradientUnits="objectBoundingBox"><stop offset="0" stop-color="gray" stop-opacity="0.251"/><stop offset="0.54" stop-color="gray" stop-opacity="0.122"/><stop offset="1" stop-color="gray" stop-opacity="0.102"/></linearGradient></defs><g transform="translate(-137 -270)"><path class="a" d="M311.88,96.472c-33.427.045-65.6-9.431-96.377-19.958S154.19,54.2,121.385,49.205C100.287,45.994,76.3,46.29,59.8,57.948c-15.875,11.215-20.472,29.778-22.69,46.927-1.668,12.9-2.437,26.442,3.81,38.243,4.338,8.192,11.761,14.945,16.993,22.753,18.263,27.162,7.28,61.859-10.469,89.651-8.322,13.04-18.071,25.539-24.362,39.325s-8.872,29.42-2.455,43.028c6.359,13.487,20.722,23.276,36.137,29.961,31.3,13.6,67.748,16.519,103.214,17.641,78.507,2.491,157.167-2.589,235.615-7.669,29.031-1.878,58.192-3.77,86.624-9.212,15.785-3.018,32.041-7.5,43.234-17.319,14.207-12.467,17.114-32.823,6.775-47.455-17.337-24.541-63.053-29.17-75.484-55.723-6.855-14.618-.944-31.383,7.763-45.474,18.674-30.234,50.818-57.315,51.359-91.131.371-23.222-16.344-45.876-41.311-55.969-26.169-10.571-61.85-7.853-80.184,11.85C375.519,87.672,341.394,96.441,311.88,96.472Z" transform="translate(120.09 222.546)"/><path class="b" d="M995.913,690.381s-5.5-3.627-10.943-1.047c0,0,1.677,3.229,8.572,2.925Z" transform="translate(-415.071 -131.785)"/><path class="b" d="M1006.5,693.25s1.672,6.368-2.522,10.7c0,0-2.522-2.625,0-9.055Z" transform="translate(-424.958 -134.462)"/><path class="b" d="M1010.658,674.656s-.407-5.415-12.637-3.617c0,0-.058,3.492,4.235,5.147S1008.515,676.444,1010.658,674.656Z" transform="translate(-422.286 -121.981)"/><path class="b" d="M1023.567,679.5s5.17,1.659.559,13.129c0,0-3.412-.76-4.025-5.326S1021.3,681.164,1023.567,679.5Z" transform="translate(-434.426 -126.861)"/><path class="b" d="M1028.833,652.349s.7-8.912-11.8-8c0,0-.894,8.049,9.592,10.142Z" transform="translate(-432.788 -107.392)"/><path class="b" d="M1044.347,630.36s-1.713-10.1-14.207-7.092c0,0-.045,8.734,12.168,9.5Z" transform="translate(-440.042 -95.465)"/><path class="b" d="M1056.559,607.357s-2.871-9.838-15.249-6.9c0,0,2.947,8.85,14.426,8.711Z" transform="translate(-446.217 -82.863)"/><path class="b" d="M1069.987,584.29s-2.8-10.209-14.757-7.155c0,0,3.989,9.7,13.966,8.881Z" transform="translate(-453.912 -69.956)"/><path class="b" d="M1080.049,559.748s-2.155-12.485-13.3-9.722c0,0,3.237,11.359,12.481,11.542Z" transform="translate(-460.281 -55.064)"/><path class="b" d="M1087.1,534.317s-2.589-12.584-13.862-8.944c0,0,4.418,11.9,13.062,10.665Z" transform="translate(-463.869 -41.291)"/><path class="b" d="M1093.145,506.78s-4.11-12.588-12.825-12.248c0,0,4.2,13.295,12.1,14.757Z" transform="translate(-467.783 -24.603)"/><path class="b" d="M1097.784,480.884s-4.472-15.151-11.564-13.983c0,0,3.094,11.582,11.314,16.344Z" transform="translate(-471.044 -9.296)"/><path class="b" d="M1100,453.769s-4.195-12.624-11.18-13.129c0,0,2.853,12.423,11.041,16.412Z" transform="translate(-472.481 5.186)"/><path class="b" d="M1103.548,427.664s-5.228-12.637-9.838-12.924c0,0,2.272,12.445,9.391,15Z" transform="translate(-475.185 19.504)"/><path class="b" d="M1107.315,400.744s-3.215-13.724-7.834-14.864c0,0,.63,11.229,7.369,15.893Z" transform="translate(-478.375 35.458)"/><path class="b" d="M1112.093,371.411s-3.381-10.943-7.124-12.611c0,0,.738,12.9,6.26,15.285Z" transform="translate(-481.409 50.428)"/><path class="b" d="M1120.652,342.152l.68-19.292s-7,14.542-1.185,22.677Z" transform="translate(-488.523 70.297)"/><path class="b" d="M1132.844,304.7s5.04-14.086,6.26-14.873c0,0-9.883,9.14-8.917,20.9Z" transform="translate(-495.314 88.556)"/><path class="b" d="M1041.7,662.135s8.863-1.158,8.6,11.367c0,0-8.009,1.306-10.625-9.055Z" transform="translate(-445.31 -117.246)"/><path class="b" d="M1060.324,639.06s10.24-.031,9.391,12.789c0,0-8.6,1.538-11.434-10.366Z" transform="translate(-455.599 -104.505)"/><path class="b" d="M1074.612,617.383s9.3-4.36,15.245,6.9c0,0-8.586,3.631-16.067-5.076Z" transform="translate(-464.172 -92.062)"/><path class="b" d="M1087.717,592.849s9.52-4.637,15.11,6.354c0,0-9.919,3.417-15.9-4.615Z" transform="translate(-471.437 -78.422)"/><path class="b" d="M1095.7,568.1s9.163-8.752,16.474.1c0,0-9.36,7.2-16.895,1.851Z" transform="translate(-476.052 -63.141)"/><path class="b" d="M1102.671,540.753s9.216-8.944,16.469.411c0,0-10.343,7.347-16.8,1.467Z" transform="translate(-479.956 -48.027)"/><path class="b" d="M1106.93,509.945s7.1-11.179,15.463-8.684c0,0-7.37,11.837-15.383,11.309Z" transform="translate(-482.493 -28.126)"/><path class="b" d="M1111.383,483.363s7.155-14.077,13.926-11.627c0,0-5.16,10.822-14.109,14Z" transform="translate(-484.853 -11.846)"/><path class="b" d="M1111.835,456.194s7.356-11.081,14.247-9.726c0,0-6.014,11.238-14.963,12.932Z" transform="translate(-484.809 2.027)"/><path class="b" d="M1114,427.611s5.7-12.436,10.334-12.521c0,0-2.737,12.347-9.95,14.632Z" transform="translate(-486.402 19.31)"/><path class="b" d="M1116.5,402.92s6.337-12.593,11.1-12.619c0,0-3.242,10.768-10.889,13.724Z" transform="translate(-487.783 33.014)"/><path class="b" d="M1118.63,374.42s4.74-10.419,8.666-11.6c0,0-2.37,12.7-8.143,14.363Z" transform="translate(-488.961 48.206)"/><path class="b" d="M1123.477,345.2l10.593-16.139s-2.714,15.92-12.141,19.229Z" transform="translate(-490.785 66.869)"/><path class="b" d="M1135.309,313.8s12.311-8.5,12.758-9.869c0,0-6.261,11.9-17.887,14Z" transform="translate(-495.346 80.761)"/><path class="b" d="M1142.88,300.667s14.135-13.59,17.744-13.576c0,0-11.658.532-18.084,12.852Z" transform="translate(-502.179 90.071)"/><path class="b" d="M1118.94,349.973l.514.067c2.656-20.789,6.529-33.091,10.9-34.6l-.17-.492C1125.55,316.56,1121.65,328.674,1118.94,349.973Z" transform="translate(-489.133 74.669)"/><path class="b" d="M1110.2,441.08l.778.063c.165-1.941.291-3.926.375-5.907.742-17.208,1.892-33.011,3.4-44.857l-.447-.559c-1.516,11.873-2.992,28.15-3.734,45.385C1110.491,437.172,1110.365,439.149,1110.2,441.08Z" transform="translate(-484.3 33.28)"/><path class="b" d="M976.48,596.769c.134-.058,13.831-6.176,28.047-20.763a112.783,112.783,0,0,0,20.5-29.067c6.574-13.384,10.581-29.832,11.922-45.809l-.809.38c-3.019,35.864-19.345,60.37-32.327,73.718-14.077,14.457-27.622,20.512-27.756,20.57Z" transform="translate(-410.146 -28.254)"/><path class="c" d="M520.386,132.69H90.7a3.828,3.828,0,0,0-3.828,3.828v11.153H524.214V136.518A3.828,3.828,0,0,0,520.386,132.69Z" transform="translate(81.415 175.426)"/><path class="d" d="M86.87,166.19V417.166a7.718,7.718,0,0,0,7.718,7.718H516.5a7.718,7.718,0,0,0,7.719-7.718V166.19Z" transform="translate(81.415 156.907)"/><circle class="e" cx="1.789" cy="1.789" r="1.789" transform="translate(173.423 313.706)"/><circle class="f" cx="1.789" cy="1.789" r="1.789" transform="translate(178.342 313.706)"/><circle class="g" cx="1.789" cy="1.789" r="1.789" transform="translate(183.261 313.706)"/><rect class="h" width="351.485" height="154.555" transform="translate(208.938 364.944)"/><rect class="c" width="346.119" height="151.147" transform="translate(211.621 366.116)"/><path class="i" d="M352.213,349.38a34.433,34.433,0,1,0,34.433,34.433A34.433,34.433,0,0,0,352.213,349.38Zm6.176,35.26v16.3H346.216v-16.3a10.084,10.084,0,1,1,12.172,0Z" transform="translate(-46.236 55.636)"/><path class="b" d="M340.051,327.38a44.271,44.271,0,1,0,44.271,44.271,44.271,44.271,0,0,0-44.271-44.271Zm7.938,45.335v20.959H332.337V372.715a12.968,12.968,0,1,1,15.651,0Z" transform="translate(-34.074 67.798)"/><rect class="j" width="143.098" height="15.204" transform="translate(368.582 433.64)"/><rect class="k" width="30.856" height="15.204" transform="translate(480.825 461.365)"/><path class="l" d="M558.264,426.01h-2.589l2.3-2.3a.228.228,0,0,0,0-.318.223.223,0,0,0-.317,0l-2.3,2.3V423.1a.224.224,0,0,0-.224-.224.228.228,0,0,0-.224.224V425.7l-2.3-2.316a.224.224,0,0,0-.318,0,.228.228,0,0,0,0,.317l2.3,2.3H552a.228.228,0,0,0-.224.224.224.224,0,0,0,.224.224H554.6l-2.3,2.3a.228.228,0,0,0,0,.317.233.233,0,0,0,.318,0l2.3-2.3v2.589a.224.224,0,1,0,.447,0v-2.589l2.3,2.3a.232.232,0,0,0,.317,0,.228.228,0,0,0,0-.317l-2.3-2.3h2.589a.217.217,0,1,0,0-.434Z" transform="translate(-175.596 15.004)"/><path class="l" d="M579.264,426.01h-2.589l2.3-2.3a.228.228,0,0,0,0-.318.224.224,0,0,0-.318,0l-2.3,2.3V423.1a.224.224,0,0,0-.224-.224.228.228,0,0,0-.224.224V425.7l-2.3-2.316a.223.223,0,0,0-.317,0,.228.228,0,0,0,0,.317l2.3,2.3H573a.228.228,0,0,0-.223.224.223.223,0,0,0,.223.224H575.6l-2.3,2.3a.228.228,0,0,0,0,.317.232.232,0,0,0,.317,0l2.3-2.3v2.589a.224.224,0,1,0,.447,0v-2.589l2.3,2.3a.233.233,0,0,0,.318,0,.228.228,0,0,0,0-.317l-2.3-2.3h2.589a.217.217,0,1,0,0-.434Z" transform="translate(-187.205 15.004)"/><path class="l" d="M600.264,426.01h-2.589l2.3-2.3a.228.228,0,0,0,0-.318.223.223,0,0,0-.317,0l-2.3,2.3V423.1a.224.224,0,0,0-.224-.224.228.228,0,0,0-.224.224V425.7l-2.3-2.316a.223.223,0,0,0-.317,0,.228.228,0,0,0,0,.317l2.3,2.3H594a.228.228,0,0,0-.224.224.224.224,0,0,0,.224.224H596.6l-2.3,2.3a.228.228,0,0,0,0,.317.232.232,0,0,0,.317,0l2.3-2.3v2.589a.224.224,0,1,0,.447,0v-2.589l2.3,2.3a.232.232,0,0,0,.317,0,.228.228,0,0,0,0-.317l-2.3-2.3h2.589a.217.217,0,1,0,0-.434Z" transform="translate(-198.814 15.004)"/><path class="l" d="M621.264,426.01h-2.589l2.3-2.3a.228.228,0,0,0,0-.318.224.224,0,0,0-.318,0l-2.3,2.3V423.1a.223.223,0,0,0-.224-.224.228.228,0,0,0-.224.224V425.7l-2.3-2.316a.223.223,0,0,0-.318,0,.228.228,0,0,0,0,.317l2.3,2.3H615a.228.228,0,0,0-.224.224.224.224,0,0,0,.224.224H617.6l-2.3,2.3a.228.228,0,0,0,0,.317.233.233,0,0,0,.318,0l2.3-2.3v2.589a.224.224,0,1,0,.447,0v-2.589l2.3,2.3a.233.233,0,0,0,.318,0,.228.228,0,0,0,0-.317l-2.3-2.3h2.589a.217.217,0,1,0,0-.434Z" transform="translate(-210.423 15.004)"/><path class="l" d="M642.264,426.01h-2.589l2.3-2.3a.228.228,0,0,0,0-.318.223.223,0,0,0-.317,0l-2.3,2.3V423.1a.224.224,0,0,0-.224-.224.228.228,0,0,0-.224.224V425.7l-2.3-2.316a.223.223,0,0,0-.317,0,.228.228,0,0,0,0,.317l2.3,2.3H636a.228.228,0,0,0-.224.224.224.224,0,0,0,.224.224H638.6l-2.3,2.3a.228.228,0,0,0,0,.317.232.232,0,0,0,.317,0l2.3-2.3v2.589a.224.224,0,1,0,.447,0v-2.589l2.3,2.3a.232.232,0,0,0,.317,0,.228.228,0,0,0,0-.317l-2.3-2.3h2.589a.217.217,0,1,0,0-.434Z" transform="translate(-222.033 15.004)"/><path class="l" d="M663.264,426.01h-2.589l2.3-2.3a.228.228,0,0,0,0-.318.223.223,0,0,0-.317,0l-2.3,2.3V423.1a.223.223,0,0,0-.224-.224.228.228,0,0,0-.224.224V425.7l-2.3-2.316a.224.224,0,0,0-.318,0,.228.228,0,0,0,0,.317l2.3,2.3H657a.228.228,0,0,0-.224.224.224.224,0,0,0,.224.224H659.6l-2.3,2.3a.228.228,0,0,0,0,.317.233.233,0,0,0,.318,0l2.3-2.3v2.589a.224.224,0,1,0,.447,0v-2.589l2.3,2.3a.232.232,0,0,0,.317,0,.228.228,0,0,0,0-.317l-2.3-2.3h2.589a.217.217,0,1,0,0-.434Z" transform="translate(-233.642 15.004)"/><path class="l" d="M684.264,426.01h-2.589l2.3-2.3a.228.228,0,0,0,0-.318.223.223,0,0,0-.317,0l-2.3,2.3V423.1a.224.224,0,0,0-.224-.224.228.228,0,0,0-.224.224V425.7l-2.3-2.316a.223.223,0,0,0-.317,0,.228.228,0,0,0,0,.317l2.3,2.3H678a.228.228,0,0,0-.224.224.223.223,0,0,0,.224.224H680.6l-2.3,2.3a.228.228,0,0,0,0,.317.232.232,0,0,0,.317,0l2.3-2.3v2.589a.224.224,0,0,0,.447,0v-2.589l2.3,2.3a.233.233,0,0,0,.318,0,.228.228,0,0,0,0-.317l-2.3-2.3h2.589a.217.217,0,1,0,0-.434Z" transform="translate(-245.251 15.004)"/><path class="l" d="M705.264,426.01h-2.589l2.3-2.3a.228.228,0,0,0,0-.318.224.224,0,0,0-.318,0l-2.3,2.3V423.1a.224.224,0,0,0-.224-.224.228.228,0,0,0-.224.224V425.7l-2.3-2.316a.223.223,0,0,0-.318,0,.228.228,0,0,0,0,.317l2.3,2.3H699a.228.228,0,0,0-.224.224.224.224,0,0,0,.224.224H701.6l-2.3,2.3a.228.228,0,0,0,0,.317.232.232,0,0,0,.318,0l2.3-2.3v2.589a.224.224,0,1,0,.447,0v-2.589l2.3,2.3a.232.232,0,0,0,.317,0,.228.228,0,0,0,0-.317l-2.3-2.3h2.589a.217.217,0,1,0,0-.434Z" transform="translate(-256.86 15.004)"/><path class="l" d="M726.264,426.01h-2.589l2.3-2.3a.228.228,0,0,0,0-.318.223.223,0,0,0-.318,0l-2.3,2.3V423.1a.224.224,0,0,0-.224-.224.228.228,0,0,0-.224.224V425.7l-2.3-2.316a.224.224,0,0,0-.318,0,.228.228,0,0,0,0,.317l2.3,2.3H720a.228.228,0,0,0-.224.224.224.224,0,0,0,.224.224H722.6l-2.3,2.3a.228.228,0,0,0,0,.317.233.233,0,0,0,.318,0l2.3-2.3v2.589a.224.224,0,1,0,.447,0v-2.589l2.3,2.3a.232.232,0,0,0,.317,0,.228.228,0,0,0,0-.317l-2.3-2.3h2.589a.217.217,0,1,0,0-.434Z" transform="translate(-268.469 15.004)"/><path class="l" d="M747.264,426.01h-2.589l2.3-2.3a.228.228,0,0,0,0-.318.224.224,0,0,0-.318,0l-2.3,2.3V423.1a.224.224,0,0,0-.224-.224.228.228,0,0,0-.223.224V425.7l-2.3-2.316a.223.223,0,0,0-.317,0,.228.228,0,0,0,0,.317l2.3,2.3H741a.228.228,0,0,0-.224.224.224.224,0,0,0,.224.224H743.6l-2.3,2.3a.228.228,0,0,0,0,.317.232.232,0,0,0,.317,0l2.3-2.3v2.589a.224.224,0,1,0,.447,0v-2.589l2.3,2.3a.233.233,0,0,0,.318,0,.228.228,0,0,0,0-.317l-2.3-2.3h2.589a.217.217,0,1,0,0-.434Z" transform="translate(-280.079 15.004)"/><path class="l" d="M768.264,426.01h-2.589l2.3-2.3a.228.228,0,0,0,0-.318.223.223,0,0,0-.317,0l-2.3,2.3V423.1a.224.224,0,0,0-.224-.224.228.228,0,0,0-.224.224V425.7l-2.3-2.316a.224.224,0,0,0-.318,0,.228.228,0,0,0,0,.317l2.3,2.3H762a.228.228,0,0,0-.224.224.224.224,0,0,0,.224.224H764.6l-2.3,2.3a.228.228,0,0,0,0,.317.233.233,0,0,0,.318,0l2.3-2.3v2.589a.224.224,0,0,0,.447,0v-2.589l2.3,2.3a.232.232,0,0,0,.317,0,.228.228,0,0,0,0-.317l-2.3-2.3h2.589a.217.217,0,1,0,0-.434Z" transform="translate(-291.688 15.004)"/><path class="m" d="M853.338,505a8.005,8.005,0,0,0-.2-1.605c-.4-1.512-1.31-3.34-2.8-3.8a23.527,23.527,0,0,1-4.445-1.878c-.268-4.794.832-9.7-.367-14.345a36.537,36.537,0,0,1-1.382-5.067c-.246-2.164.344-4.472-.519-6.466a6.382,6.382,0,0,0-3.779-3.264,20.137,20.137,0,0,0-5.04-.894c-2.146-.174-9.1-1-11.52.921h0a2.532,2.532,0,0,0-.447.447h0a1.772,1.772,0,0,0-.143.233l-.022.036a1.832,1.832,0,0,0-.121.291h0a2.27,2.27,0,0,0-.076.335v.8c.031.4.089.8.089,1.2a2.583,2.583,0,0,1-.054.59,4.133,4.133,0,0,1-.742,1.449h0l-.08.116c-.049.072-.1.139-.143.21s-.08.125-.116.188-.071.1-.1.161a2.146,2.146,0,0,0-.116.228c0,.045-.049.085-.067.13a2.214,2.214,0,0,0-.134.376,2.5,2.5,0,0,0-.027,1.19,4.425,4.425,0,0,0,.613,1.409c.112.183.233.362.358.541l.313.425a9.67,9.67,0,0,0-.094,1.252,9.252,9.252,0,0,0,3.532,7.27,27.4,27.4,0,0,1-.057,5.676c-.04.393-.089.791-.143,1.185s-.094.653-.148.979a4.541,4.541,0,0,1-1.954-.148,9.207,9.207,0,0,0-.894-.344c-1.3-.326-2.63.97-3.917.577a.525.525,0,0,1-.058.179,1.753,1.753,0,0,0-.894-.264,3.263,3.263,0,0,1-1.941-1.113l-1.7-1.605a1.882,1.882,0,0,1-.3-.331,2.324,2.324,0,0,1-.206-.55,6.336,6.336,0,0,0-1.65-2.366,1.118,1.118,0,0,0-.487-.353.75.75,0,0,0-.224,0,1.959,1.959,0,0,0-.148-.179,4.187,4.187,0,0,0-.371-.376c-.814-.751-.894-1.4-1.6-2.236a21.463,21.463,0,0,1-1.673-2.526c-.058-.47-.139-.953-.237-1.44a18.522,18.522,0,0,0-.979-3.264L805.226,477l-.1.1c-.648-.966-1.342-1.494-1.963-1.368-1.042.215-1.556,2.236-1.391,4.879l.358,2.683a.828.828,0,0,0,.049.2,4.96,4.96,0,0,0-.1.966c0,.376.349.653.532.988a2.8,2.8,0,0,1,.447,1.525c-.022.192-.081.376-.089.563a2.169,2.169,0,0,0,.42,1.163l2.236,3.756.447.787.027.036a1.908,1.908,0,0,0,.6.689,8.186,8.186,0,0,0,.738,2.714c.076.17.161.331.25.492a15.815,15.815,0,0,0,2.111,2.741l1.064,1.194c1.051,1.172,2.1,2.348,3.242,3.43a4.343,4.343,0,0,0,1.449,1.015,1.641,1.641,0,0,0,1.628-.237v1.663a.935.935,0,0,1,.707,1.471,36.888,36.888,0,0,1-3.309,7,14.911,14.911,0,0,1,2.772,2.115,12.469,12.469,0,0,1,1.444,1.954c.04.331.071.657.089.984.331,5.33-1.731,10.621-3.578,15.7a12.234,12.234,0,0,0-1.069,4.445,8.708,8.708,0,0,0-1,.72,6.627,6.627,0,0,1,.183,2.835,5.023,5.023,0,0,1-.371,1.789,12.616,12.616,0,0,1-.644,1.149,17.06,17.06,0,0,0-1.646,6.806c-.139,1.409.407,3.13-.233,4.391a17.964,17.964,0,0,0-2.236,6.878,6.9,6.9,0,0,1-.206,1.605c-.139.447-.385.827-.51,1.266a5.413,5.413,0,0,0-.089,1.789,17.116,17.116,0,0,1-.939,6.31c-.559,1.6-1.176,3.3-.738,4.946a6.971,6.971,0,0,0-1.892,4.154,6.557,6.557,0,0,1-.143,1.185,5.766,5.766,0,0,1-.537,1.14,9.98,9.98,0,0,0-1.216,5.366,14.925,14.925,0,0,0-2.41,6.3c-.4,2.232-.573,4.5-1.082,6.708-.68,2.916-1.909,5.862-2.151,8.85-1.449.926-2.075,2.719-2.352,4.414a19.651,19.651,0,0,1-1.033,5.04c-.367.814-.894,1.543-1.243,2.374a10.916,10.916,0,0,0-.537,2.044,7.974,7.974,0,0,0-.139,3.354,5.057,5.057,0,0,1-1.31,1c.072-.277.13-.555.179-.836-1.154,1.047-3.247.68-4.168,1.936a1.887,1.887,0,0,0,.447,2.589,3.576,3.576,0,0,0,.926.4c2.236.716,4.534,1.435,6.833,1.055a2.038,2.038,0,0,0,.774-.246,2.49,2.49,0,0,0,.72-.832c.344-.546.689-1.091,1.028-1.637a21.251,21.251,0,0,0,2.509.586c.085.715.148,1.431.179,2.147.447.089,1.046.116,1.256-.3a1.086,1.086,0,0,0,.076-.5c0-.317.045-.738.072-1.167h.089a8.5,8.5,0,0,0,3.957-.8c-.478-3.962,1.1-7.835,2.469-11.582,1.444-3.944,2.683-7.96,3.931-11.976.894-2.826,1.883-5.563,2.759-8.394q1.655-5.366,3.323-10.732c.483-1.574.97-3.13,1.525-4.7a73.142,73.142,0,0,1,4.145-9.225c.447-.845.894-1.681,1.261-2.558.447-1.069.765-2.187,1.123-3.291a50.988,50.988,0,0,1,2.808-6.609c.031-.058.054-.112.085-.165.362,1.48.724,2.983.966,4.472a17,17,0,0,1,.076,5.527,18.225,18.225,0,0,0-.573,3.747c.067,1.748,1,3.336,1.462,5.022a19.124,19.124,0,0,1,.5,3.846c.125,2.012,1.216,4.271.447,6.135-2.392,5.907-1.234,12.579-2.6,18.781-.7,3.184-2.853,6.176-2.683,9.431q.179,3.466.608,6.914a6.583,6.583,0,0,0,.559,2.1,7.7,7.7,0,0,0,.613,1c-.2.076-.362.277-.505.7a2.759,2.759,0,0,0,.993,3.13,4.344,4.344,0,0,0,1.292.447,6.811,6.811,0,0,0,1.869.259,4.367,4.367,0,0,0,.586-.072,21.264,21.264,0,0,0,2.115.76,4.582,4.582,0,0,0,.058.55.685.685,0,0,0,.233.505.7.7,0,0,0,.358.063h2.428v-.608a2,2,0,0,0,1.543-.5,2.389,2.389,0,0,0,.447-.93q.993-3.367,1.972-6.739a21.545,21.545,0,0,0,.962-7.691c-.863-8.242,1.033-16.51.416-24.774a59.344,59.344,0,0,1,.76-14.864c.2-1.109.447-2.236.537-3.34.2-2.084-.045-4.19.1-6.261.049-.724.148-1.444.237-2.164a103.933,103.933,0,0,0,.961-13.483,42.506,42.506,0,0,0-.277-4.472,2.553,2.553,0,0,0,1.221-.715,3.041,3.041,0,0,0,.291-1.909,13.841,13.841,0,0,1,1.2-4.57,54.343,54.343,0,0,0,1.69-6.287,21.961,21.961,0,0,0,.751-5.254q0-.268-.027-.537a1.389,1.389,0,0,0,.411-.447,2.6,2.6,0,0,0,.215-.827c.161-1.14.326-2.285.487-3.43q.179-1.23.353-2.455l1.422-9.923c.121-.863.246-1.722.367-2.581l.371-2.567c.04-.3.085-.608.116-.894C854.5,509.5,853.454,507.071,853.338,505Zm-11.864,37.152a8.173,8.173,0,0,1-.894-3.886h-.049a2,2,0,0,0-.058-1.261c-.139-.326-.38-.6-.528-.93a3.41,3.41,0,0,1-.241-1.252,34.146,34.146,0,0,1,.639-8.112c.058-.313.121-.63.179-.944a2.348,2.348,0,0,0,.51-.4,3.629,3.629,0,0,0,.577-.894c.505-1.015.966-2.048,1.391-3.1.139-.34.34-.734.684-.818-.072,2.616.2,5.286-.868,7.647a4.838,4.838,0,0,0-.447,1.207c-.1.666.179,1.342.081,2-.049.344-.2.662-.255,1a.979.979,0,0,0,.259.948.785.785,0,0,0,.192.1c-.027.179-.049.362-.067.536-.036.367-.054.711-.076.926a28.86,28.86,0,0,0-.121,3.291c0,1.185.045,2.37.027,3.577a2.428,2.428,0,0,1-.17,1.015,1.762,1.762,0,0,1-.34.447A11.616,11.616,0,0,0,841.474,542.148Z" transform="translate(-304.77 -9.582)"/><ellipse class="n" cx="2.522" cy="7.141" rx="2.522" ry="7.141" transform="matrix(0.98, -0.201, 0.201, 0.98, 496.07, 467.192)"/><path class="c" d="M878.228,837.572a2.708,2.708,0,0,0,.993,3.1,4.422,4.422,0,0,0,1.284.447,6.767,6.767,0,0,0,1.865.255c.774-.036,1.516-.34,2.29-.447a.356.356,0,0,1,.264.036.38.38,0,0,1,.1.313,11.8,11.8,0,0,0,.1,1.315.675.675,0,0,0,.233.505.7.7,0,0,0,.358.062h2.424a23.642,23.642,0,0,0-.693-6.323,1.415,1.415,0,0,0-.179-.447,1.479,1.479,0,0,0-.774-.447,4.321,4.321,0,0,0-1.874-.326,5.489,5.489,0,0,0-2.1,1.029,3.2,3.2,0,0,1-2.383.577C879.319,837,878.644,836.329,878.228,837.572Z" transform="translate(-355.985 -213.16)"/><path class="n" d="M795.109,834.474a6.708,6.708,0,0,1-2.446,1.663l-.411.2a.285.285,0,0,0-.139.112.241.241,0,0,0,.045.2,2.894,2.894,0,0,0,3.282,1.194,1.738,1.738,0,0,0,.72-.376,2.362,2.362,0,0,0,.555-1.44,2.946,2.946,0,0,0-.067-1.65C796.026,832.976,795.8,833.611,795.109,834.474Z" transform="translate(-308.453 -212.025)"/><path class="c" d="M801.016,840.3a1.088,1.088,0,0,1-.076.5c-.21.411-.8.389-1.252.3a30.1,30.1,0,0,0-.55-4.516c-.867-.04-1.493.783-1.958,1.52l-1.2,1.9a2.478,2.478,0,0,1-.715.832,2.115,2.115,0,0,1-.774.246c-2.29.38-4.6-.34-6.811-1.055a3.6,3.6,0,0,1-.925-.394,1.892,1.892,0,0,1-.447-2.585c.926-1.252,3.005-.894,4.159-1.932a10.424,10.424,0,0,1-.59,2.133c1.543-.233,2.58-1.646,3.823-2.589a2.355,2.355,0,0,1,1.091-.519,2.4,2.4,0,0,1,.894.094,10.491,10.491,0,0,1,3.935,1.936,4.238,4.238,0,0,1,1.409,1.467A10.847,10.847,0,0,1,801.016,840.3Z" transform="translate(-305.068 -212.344)"/><circle class="n" cx="9.239" cy="9.239" r="9.239" transform="translate(517.471 461.938)"/><path class="c" d="M917.247,615.711a21.915,21.915,0,0,1-.747,5.228,53.939,53.939,0,0,1-1.69,6.26,13.779,13.779,0,0,0-1.194,4.561,3.034,3.034,0,0,1-.3,1.905,2.782,2.782,0,0,1-1.306.747,1.632,1.632,0,0,0-1.1.979,6.911,6.911,0,0,1-.93-2.048q-1.2-3.685-2.236-7.41a.961.961,0,0,1,.063-.894,1.105,1.105,0,0,1,.389-.219,4.023,4.023,0,0,0,1.239-.8,1.808,1.808,0,0,0,.411-.532,2.408,2.408,0,0,0,.174-1.011c0-1.185,0-2.366-.031-3.551a29.669,29.669,0,0,1,.125-3.278c0-.214.04-.559.076-.926.067-.7.2-1.516.581-1.789.568-.38,2.267.13,2.911.219,1.109.152,2.236.331,3.318.541A8.864,8.864,0,0,1,917.247,615.711Z" transform="translate(-372.337 -89.987)"/><path class="c" d="M833.163,509.019c-.358.715-1.216,1.06-1.878,1.511l-2.267,1.556a1.514,1.514,0,0,1-1.122.385,1.476,1.476,0,0,1-.836-.783.171.171,0,0,0,0-.036l-.469-.787-2.236-3.747a2.133,2.133,0,0,1-.416-1.154c0-.192.067-.371.085-.563a2.707,2.707,0,0,0-.447-1.52c-.179-.335-.537-.613-.528-.988a3.578,3.578,0,0,1,.25-1.444,2.925,2.925,0,0,1,.98-1.046c.21-.152.425-.3.648-.447a1.277,1.277,0,0,1,.389-.179c.371-.076.738.233,1.114.246,1.614,1.082,2.236,3.13,3.506,4.606.716.841.787,1.485,1.6,2.236.13.116.255.241.376.371a2.6,2.6,0,0,1,.4.581C832.456,508.2,833.346,508.652,833.163,509.019Z" transform="translate(-325.556 -27.499)"/><path class="n" d="M875.982,509.595a8.328,8.328,0,0,1,.993,4.5,2.815,2.815,0,0,1-.389,1.185c-.644.988-1.995,1.167-3.171,1.225a1.869,1.869,0,0,0-1.377.447,1.252,1.252,0,0,0,.085,1.529,3.454,3.454,0,0,0,1.368.894,12.117,12.117,0,0,0,5.89,1.306c.939-.089,1.851-.362,2.786-.5a29.21,29.21,0,0,1,3.068-.17c1.216-.045,2.428-.166,3.64-.286l3.211-.317a.715.715,0,0,0,.478-.174c.237-.277-.067-.684-.362-.894-1.7-1.261-3.873-2.129-4.843-4.025a23.713,23.713,0,0,1-.917-2.925,24.641,24.641,0,0,1-1.064-2.822,18.7,18.7,0,0,1-.148-2.6,3.493,3.493,0,0,0-.894-2.379,3.73,3.73,0,0,0-2.433-.783,7.876,7.876,0,0,0-5.93,1.923c-.407.407-.756.894-1.176,1.261s-.993.474-.716.957.823.783,1.118,1.207a10.3,10.3,0,0,1,.783,1.44Z" transform="translate(-352.518 -29.175)"/><path class="c" d="M882.226,532.879a50.812,50.812,0,0,1-2.737,10.075,37.945,37.945,0,0,0-1.61,4.516c-.344,1.386-.277,2.871-.595,4.262-.394,1.731-.787,3.466-1.1,5.21a34.142,34.142,0,0,0-.635,8.094,3.382,3.382,0,0,0,.241,1.247c.148.322.385.6.523.93a2.236,2.236,0,0,1-.125,1.789,5.182,5.182,0,0,1-.921,1.4c-4.168,1.243-8.626.836-12.968,1.1-4,.242-8.049,1.064-11.993.38-.447-1.789.3-3.662.939-5.406,1.856-5.067,3.908-10.343,3.577-15.651a16.257,16.257,0,0,0-.21-1.847,24.483,24.483,0,0,1,1.189-11.3,19.39,19.39,0,0,0,.51-7.057,12.881,12.881,0,0,1-.031-2.312,4.065,4.065,0,0,1,.841-2.16c0-.031.04-.062.062-.094a.611.611,0,0,1,.335,0h0a.288.288,0,0,0,.224,0l.049-.031a.112.112,0,0,1,.13,0c.1.063.161.277.385.318a8.918,8.918,0,0,0,1,.094,5.363,5.363,0,0,1,1.19.17h.054a3.493,3.493,0,0,0,1.735-.148,4.611,4.611,0,0,0,1.064-.411c.1-.107.715-.206.841-.282.407-.246.318-1.4.4-1.874a5.149,5.149,0,0,1,.335-1.386,2.361,2.361,0,0,1,1.914-1.114,10.2,10.2,0,0,1,2.294.206c1.668.237,3.376.2,5.013.581a3.735,3.735,0,0,0,2.477.107c.206.049.237.228.237.447a2.865,2.865,0,0,1-.125.613c-.286,1.234.684,2.37,1.578,3.264a5.062,5.062,0,0,0,1.319,1.051c.447.206.894.291,1.341.514a2.441,2.441,0,0,1,.894.818,3.412,3.412,0,0,1,.51,1.3A7.781,7.781,0,0,1,882.226,532.879Z" transform="translate(-340.549 -39.451)"/><path class="o" d="M887.429,538.582a50.807,50.807,0,0,1-2.737,10.075,37.939,37.939,0,0,0-1.61,4.517c-.344,1.386-.277,2.871-.595,4.262-.393,1.731-.787,3.466-1.1,5.21-.094.054-.192.1-.291.148a6.863,6.863,0,0,1-1.753.563,10.731,10.731,0,0,1-3.273-.107l-6.381-.854c-2.549-.344-5.263-.76-7.155-2.486a15.271,15.271,0,0,1-2.5-3.408,16.2,16.2,0,0,0-.21-1.847,24.482,24.482,0,0,1,1.19-11.3,19.393,19.393,0,0,0,.51-7.057,12.886,12.886,0,0,1-.031-2.312,4.065,4.065,0,0,1,.841-2.16,3.181,3.181,0,0,1,.4-.089h0A1.96,1.96,0,0,1,863,531.7h.13a1.947,1.947,0,0,1,.447.054,8.078,8.078,0,0,1,.894.344h.054a3.424,3.424,0,0,0,1.189.17c.59,0,1.2-.094,1.789-.134a3.3,3.3,0,0,1,2.12.38,12.722,12.722,0,0,1,1.18,1.078,5.074,5.074,0,0,0,1.489.809,15.826,15.826,0,0,0,11.9-.25,2.329,2.329,0,0,1,1.194-.3,2.238,2.238,0,0,1,.859.367c.268.157.532.309.8.447a3.418,3.418,0,0,1,.51,1.3A7.783,7.783,0,0,1,887.429,538.582Z" transform="translate(-345.752 -45.154)"/><path class="p" d="M886.549,534.561a23.869,23.869,0,0,1-5.1-2.236,2.284,2.284,0,0,0-.858-.367,2.4,2.4,0,0,0-1.2.3,15.816,15.816,0,0,1-11.9.25,5.173,5.173,0,0,1-1.489-.809,13.377,13.377,0,0,0-1.181-1.078c-1.471-.952-3.506.165-5.152-.447a9.119,9.119,0,0,0-.894-.344c-1.3-.326-2.625.97-3.9.577a21.769,21.769,0,0,0-1.051,3.989,43.452,43.452,0,0,0-.291,4.7c0,.944-.045,1.887,0,2.831a.928.928,0,0,1,.706,1.467,36.646,36.646,0,0,1-3.3,6.98,15.165,15.165,0,0,1,2.764,2.111c1.565,1.655,2.334,3.976,4.025,5.5,1.905,1.722,4.619,2.142,7.155,2.482l6.381.854a10.9,10.9,0,0,0,3.278.112,6.9,6.9,0,0,0,1.749-.568,3.127,3.127,0,0,0,.975-.644,3.573,3.573,0,0,0,.577-.894c.505-1.011.966-2.044,1.391-3.09.147-.371.371-.8.774-.836,2.37-2.138,4.606-4.329,6.976-6.466a15.471,15.471,0,0,0,2.544-2.683c1.176-1.74.107-4.2,0-6.305a7.957,7.957,0,0,0-.2-1.6C888.942,536.837,888.038,535.013,886.549,534.561Z" transform="translate(-340.977 -44.093)"/><path class="o" d="M838.12,518.153c-.358.715-1.216,1.059-1.878,1.512l-2.267,1.556a1.511,1.511,0,0,1-1.122.385,1.476,1.476,0,0,1-.836-.782V520.5a3,3,0,0,1,.143-1.068,3.329,3.329,0,0,1,1-1.288,8.2,8.2,0,0,1,2.938-1.789,1,1,0,0,1,.537-.054.713.713,0,0,1,.2.085,2.593,2.593,0,0,1,.4.581C837.413,517.335,838.3,517.786,838.12,518.153Z" transform="translate(-330.514 -36.633)"/><path class="p" d="M844.144,523.224a3.258,3.258,0,0,1-1.936-1.109l-1.695-1.574a1.582,1.582,0,0,1-.3-.331,2.323,2.323,0,0,1-.206-.55,6.308,6.308,0,0,0-1.646-2.361,1.074,1.074,0,0,0-.487-.349.978.978,0,0,0-.541.053,8.185,8.185,0,0,0-2.938,1.789,3.341,3.341,0,0,0-1,1.288,2.972,2.972,0,0,0-.143,1.069,8.215,8.215,0,0,0,.778,3.417c.076.165.161.331.25.492a15.51,15.51,0,0,0,2.1,2.732l1.064,1.189c1.047,1.172,2.093,2.343,3.229,3.421a4.261,4.261,0,0,0,1.449,1.011,1.619,1.619,0,0,0,1.663-.268,2.407,2.407,0,0,0,.474-.85,16.729,16.729,0,0,0,1.382-5.576,21.129,21.129,0,0,0-.1-2.312C845.482,523.591,844.9,523.273,844.144,523.224Z" transform="translate(-331.199 -36.991)"/><path class="q" d="M851.849,645.526a103.351,103.351,0,0,1-.957,13.447c-.089.72-.188,1.44-.237,2.16-.148,2.088.094,4.186-.1,6.26-.1,1.122-.335,2.236-.532,3.332a59.238,59.238,0,0,0-.76,14.824c.617,8.242-1.274,16.488-.416,24.707a19.985,19.985,0,0,1-.264,4.78,20.266,20.266,0,0,1-.693,2.889q-.979,3.358-1.968,6.708a2.326,2.326,0,0,1-.447.93,2.12,2.12,0,0,1-1.677.5c-2.58-.081-5.008-1.194-7.352-2.281a2.561,2.561,0,0,1-.738-.447c-.488-.505-.447-1.3-.662-1.968a18.716,18.716,0,0,0-1.127-1.977,6.455,6.455,0,0,1-.487-2.035q-.447-3.434-.608-6.9c-.17-3.247,1.977-6.234,2.683-9.391,1.342-6.207.206-12.861,2.589-18.75.751-1.86-.34-4.114-.447-6.118a19.4,19.4,0,0,0-.5-3.837c-.447-1.681-1.391-3.264-1.458-5.008a18.4,18.4,0,0,1,.568-3.734,16.779,16.779,0,0,0-.076-5.514c-.237-1.5-.6-3.005-.961-4.472l-.081.166a50.535,50.535,0,0,0-2.8,6.6c-.358,1.1-.671,2.214-1.118,3.278-.367.894-.818,1.713-1.261,2.553a73.372,73.372,0,0,0-4.136,9.19c-.555,1.547-1.042,3.13-1.525,4.682L820.98,690.83c-.894,2.822-1.874,5.549-2.75,8.367-1.239,4.025-2.477,8.014-3.917,11.949-1.342,3.734-2.938,7.6-2.459,11.546a8.5,8.5,0,0,1-3.949.8,23.117,23.117,0,0,1-6.708-1.628,5.216,5.216,0,0,1-2.317-1.377c-.993-1.212-.747-2.987-.447-4.53a10.946,10.946,0,0,1,.537-2.039c.34-.823.894-1.552,1.243-2.365a19.852,19.852,0,0,0,1.024-5.022c.277-1.695.894-3.483,2.343-4.4.246-2.978,1.471-5.916,2.147-8.827.51-2.2.68-4.472,1.082-6.708a14.734,14.734,0,0,1,2.4-6.283,9.96,9.96,0,0,1,1.216-5.366,5.866,5.866,0,0,0,.532-1.14,6.545,6.545,0,0,0,.143-1.181,6.98,6.98,0,0,1,1.887-4.145c-.447-1.632.174-3.336.733-4.919a17.093,17.093,0,0,0,.939-6.292,5.522,5.522,0,0,1,.085-1.789c.125-.447.371-.827.514-1.257a7.149,7.149,0,0,0,.2-1.605,18.57,18.57,0,0,1,2.236-6.86c.644-1.261.1-2.974.233-4.378a16.926,16.926,0,0,1,1.646-6.784c.215-.385.447-.751.639-1.149a4.976,4.976,0,0,0,.371-1.789,6.588,6.588,0,0,0-.183-2.826c2.392-1.99,5.657-2.549,8.769-2.683s6.261.148,9.306-.514c.894-.2,1.789-.478,2.732-.612a17.677,17.677,0,0,1,6.43.657,7.658,7.658,0,0,0,.894,3.877,41.621,41.621,0,0,1,3.314,15.973Z" transform="translate(-311.805 -96.687)"/><path class="o" d="M887.02,673.29l-5.138,11.555c-.237-1.5-.6-3.005-.962-4.472l-.08.165V680.3l2.8-6.158Z" transform="translate(-357.506 -123.427)"/><path class="o" d="M920.333,615.711a1.932,1.932,0,0,1-1.02.38,4.959,4.959,0,0,1-1.672-.228l-4.025-1.006a1.98,1.98,0,0,1-.367-.13c.067-.7.2-1.516.581-1.789.568-.38,2.267.13,2.911.219,1.109.152,2.236.331,3.318.541A8.854,8.854,0,0,1,920.333,615.711Z" transform="translate(-375.423 -89.987)"/><path class="p" d="M923.221,558.045c.085.371.206.738.277,1.113a8.493,8.493,0,0,1-.094,2.768l-.367,2.558-.367,2.571-1.417,9.9L920.9,579.4l-.492,3.421a2.457,2.457,0,0,1-.215.823,1.712,1.712,0,0,1-1.4.827,5.069,5.069,0,0,1-1.672-.228l-4.025-1.011a1.264,1.264,0,0,1-.492-.2.97.97,0,0,1-.259-.943c.058-.34.206-.657.255-1,.1-.662-.179-1.341-.081-2a4.971,4.971,0,0,1,.447-1.2c1.341-2.965.563-6.426,1.02-9.646a14.623,14.623,0,0,1,3.1-6.9,19.826,19.826,0,0,1,3.425-3.363,6.9,6.9,0,0,1,1.927-1.342C923.257,556.467,923.087,557.482,923.221,558.045Z" transform="translate(-374.908 -58.929)"/><path class="q" d="M863.432,470.864c-.295.939.165,1.972-.045,2.929-.228,1.055-1.221,1.789-1.5,2.849-.447,1.614.921,3.086,1.923,4.427,3.712,4.982,3.224,11.877,1.954,17.954a92.7,92.7,0,0,1-4.226,14.31,10.968,10.968,0,0,1-2.276,3.993c2.057-.591,4.244-1.185,6.305-.613,2.612.724,4.865,3.26,7.513,2.683,1.592-.353,2.71-1.766,4.141-2.549,2.683-1.444,5.916-.536,8.908-.071a3.5,3.5,0,0,0,1.945-.1,3.23,3.23,0,0,0,1.181-1.087,11.025,11.025,0,0,0,2.3-5.947,7.629,7.629,0,0,0-2.2-5.872,12.541,12.541,0,0,1-1.883-1.789,5.553,5.553,0,0,1-.738-2.71c-.353-4.919.845-9.941-.389-14.7a36.281,36.281,0,0,1-1.373-5.053c-.246-2.16.34-4.472-.519-6.448a6.324,6.324,0,0,0-3.77-3.255,20.652,20.652,0,0,0-5.026-.894C873.208,468.717,864.456,467.666,863.432,470.864Z" transform="translate(-345.577 -10.268)"/><g class="r" transform="translate(513.683 459.572)"><path d="M868.6,507.241a92.492,92.492,0,0,1-4.2,14.252c.309-.613.568-1.256.814-1.9a92.253,92.253,0,0,0,4.226-14.31c1.274-6.082,1.762-12.968-1.95-17.954-.894-1.19-2.044-2.477-2-3.873a4.76,4.76,0,0,0-.76,1.4c-.447,1.614.921,3.086,1.923,4.427C870.361,494.268,869.874,501.164,868.6,507.241Z" transform="translate(-862.101 -478.058)"/><path d="M868.465,474.882a4.352,4.352,0,0,0,.787-1.507,7.668,7.668,0,0,0-.054-1.994,2.15,2.15,0,0,0-.742,1.024A8.845,8.845,0,0,0,868.465,474.882Z" transform="translate(-864.284 -471.38)"/><path d="M890.093,567.35a3.221,3.221,0,0,1-1.181,1.082,3.416,3.416,0,0,1-1.945.1c-2.992-.447-6.261-1.368-8.908.076-1.435.778-2.549,2.191-4.145,2.549-2.643.59-4.9-1.945-7.508-2.683a10.483,10.483,0,0,0-5.666.447,7.808,7.808,0,0,1-1.48,2.138c2.057-.59,4.244-1.185,6.305-.613,2.612.724,4.865,3.26,7.513,2.683,1.592-.353,2.71-1.766,4.141-2.549,2.683-1.444,5.916-.537,8.908-.072a3.5,3.5,0,0,0,1.945-.1,3.233,3.233,0,0,0,1.181-1.087,12.022,12.022,0,0,0,1.851-3.542,13.023,13.023,0,0,1-1.011,1.57Z" transform="translate(-859.26 -523.566)"/></g></g></svg>