<svg xmlns="http://www.w3.org/2000/svg" width="85.333" height="80" viewBox="0 0 85.333 80"><defs><style>.a{fill:#9c6;}</style></defs><path class="a" d="M70.12,42.212a15,15,0,1,0-19.852.048,22.6,22.6,0,0,0-7.607,4.48,22.52,22.52,0,0,0-7.588-4.486,15,15,0,1,0-19.859-.042A22.539,22.539,0,0,0,0,63.5v20A2.5,2.5,0,0,0,2.5,86H28.848a45.051,45.051,0,0,0,3.447,3.249,62.206,62.206,0,0,0,9.16,6.438,2.5,2.5,0,0,0,2.423,0,62.206,62.206,0,0,0,9.16-6.438A45.038,45.038,0,0,0,56.486,86H82.833a2.5,2.5,0,0,0,2.5-2.5v-20A22.539,22.539,0,0,0,70.12,42.212ZM60.167,21a10,10,0,1,1-10,10,10.011,10.011,0,0,1,10-10Zm-35,0a10,10,0,1,1-10,10,10.011,10.011,0,0,1,10-10ZM5,81V63.5A17.52,17.52,0,0,1,22.5,46h5.167A17.522,17.522,0,0,1,45.128,62.352a11.585,11.585,0,0,0-2.461,1.885c-7.375-7.385-20-1.625-20,9.122A14.952,14.952,0,0,0,24.983,81Zm37.667,9.607c-5.1-3.093-15-10.5-15-17.248a7.3,7.3,0,0,1,7.148-7.446,6.435,6.435,0,0,1,5.66,3.674,2.5,2.5,0,0,0,4.384,0c1.606-2.928,4.34-4.222,7.315-3.46a7.315,7.315,0,0,1,5.493,7.231c0,6.753-9.9,14.156-15,17.248ZM80.333,81H60.35a14.952,14.952,0,0,0,2.317-7.641A12.285,12.285,0,0,0,50.019,60.929a22.372,22.372,0,0,0-4.026-10.468A17.3,17.3,0,0,1,57.667,46h5.167a17.52,17.52,0,0,1,17.5,17.5Z" transform="translate(0 -16)"/></svg>