<svg xmlns="http://www.w3.org/2000/svg" width="48" height="48" viewBox="0 0 48 48"><defs><style>.a{fill:#9c6;}.b{fill:#151820;}</style></defs><g transform="translate(2295 4481)"><g transform="translate(-2295 -4481)"><path class="a" d="M40.97,7.029A24,24,0,0,0,7.029,40.971,24,24,0,0,0,40.97,7.029Zm-7.6,25.233a12.492,12.492,0,0,0,0-16.525L40.406,8.7a22.429,22.429,0,0,1,0,30.6Zm-17.1-.536A10.845,10.845,0,0,1,13.118,25a4.891,4.891,0,0,0,4.948-.585,4.89,4.89,0,0,0,5.934,0,4.889,4.889,0,0,0,5.934,0A4.892,4.892,0,0,0,34.882,25a10.927,10.927,0,0,1-18.608,6.727Zm0-15.453A10.928,10.928,0,0,1,34.9,23.184a3.315,3.315,0,0,1-4.4-.36.783.783,0,0,0-.567-.243h0a.783.783,0,0,0-.566.242,3.316,3.316,0,0,1-4.8,0,.783.783,0,0,0-1.134,0,3.316,3.316,0,0,1-4.8,0,.783.783,0,0,0-.567-.243h0a.783.783,0,0,0-.567.242,3.315,3.315,0,0,1-4.4.359A10.844,10.844,0,0,1,16.273,16.273ZM39.3,7.594,32.263,14.63a12.492,12.492,0,0,0-16.526,0L8.7,7.593a22.429,22.429,0,0,1,30.6,0ZM1.566,24A22.274,22.274,0,0,1,7.594,8.7l7.036,7.036a12.492,12.492,0,0,0,0,16.526L7.594,39.3A22.274,22.274,0,0,1,1.566,24ZM8.7,40.406l7.036-7.036a12.492,12.492,0,0,0,16.526,0L39.3,40.406a22.429,22.429,0,0,1-30.6,0Z"/><path class="a" d="M175.207,268.022a4.842,4.842,0,0,0,3.534-1.513.783.783,0,0,0-1.133-1.081,3.316,3.316,0,0,1-4.8,0,.783.783,0,0,0-1.134,0,3.316,3.316,0,0,1-4.8,0,.783.783,0,0,0-1.134,1.081,4.886,4.886,0,0,0,6.5.51A4.832,4.832,0,0,0,175.207,268.022Z" transform="translate(-148.241 -237.495)"/></g><circle class="b" cx="10.964" cy="10.964" r="10.964" transform="translate(-2281.948 -4467.948)"/></g></svg>