<svg xmlns="http://www.w3.org/2000/svg" width="1216.123" height="711.123" viewBox="0 0 1216.123 711.123"><defs><style>.a,.b{fill:#586386;mix-blend-mode:lighten;isolation:isolate;}.a{opacity:0.5;}.b{opacity:0.7;}</style></defs><g transform="translate(1173.123 4708.033) rotate(180)"><path class="a" d="M22.077,1.45,224.833-201.306l-.422-.422L21.48,1.2V21.05L.668,41.862a1.181,1.181,0,0,0-1.441.168A1.2,1.2,0,0,0,.922,43.725a1.182,1.182,0,0,0,.169-1.441L22.077,21.3ZM42.646,46.868-1.071,90.585h-9.594L-17.3,97.217a1.181,1.181,0,0,1-.168,1.441,1.2,1.2,0,0,1-1.695,0,1.2,1.2,0,0,1,0-1.695,1.181,1.181,0,0,1,1.441-.168l6.807-6.807h9.593L42.4,46.271H62.246L267.328-158.811l.422.422L62.493,46.868ZM155.994-28.108,67.14,60.746H47.292L31.955,76.084a1.184,1.184,0,0,1-.292,1.153,1.2,1.2,0,1,1-.007-1.7L47.045,60.149H66.892l88.855-88.855h30.274L291.727-134.412l.422.422L186.268-28.109ZM-9.295,8.358V-4.791L-88.872,74.786l-.422-.422L55.873-70.8,69.717-56.958,219.449-206.69l.423.422L69.928-56.325h0l-.211.211h0L15.093-1.489V18.359L-21.47,54.921a1.184,1.184,0,0,1-.169,1.442,1.2,1.2,0,0,1-1.7,0,1.2,1.2,0,0,1,0-1.695,1.182,1.182,0,0,1,1.442-.169L14.5,18.111V-1.613h.3l-.211-.211L69.3-56.536,55.873-69.958,1.248-15.334V12.355L-38.718,52.322a1.181,1.181,0,0,1-.169,1.441,1.2,1.2,0,0,1-1.7,0,1.2,1.2,0,0,1,0-1.695A1.184,1.184,0,0,1-39.14,51.9L.651,12.108V-14.737L-8.7-5.388V8.6l-99.112,99.112-.422-.422ZM96.171,2.4l-32.5,32.5a1.182,1.182,0,0,1-.168,1.442,1.2,1.2,0,0,1-1.7-1.7,1.184,1.184,0,0,1,1.442-.168L95.574,2.152V-42.275L68.764-15.466a1.182,1.182,0,0,1-.168,1.442,1.2,1.2,0,0,1-1.695,0,1.2,1.2,0,0,1,0-1.695,1.181,1.181,0,0,1,1.441-.169L239.3-186.842l.422.422L96.171-42.872Zm22.044-22.968a1.182,1.182,0,0,1-.168,1.442,1.2,1.2,0,0,1-1.7,0,1.2,1.2,0,0,1,0-1.7,1.182,1.182,0,0,1,1.441-.168L128.04-31.237h-17.1l-5.584,5.584V-8.979a1.172,1.172,0,0,1,.555.294,1.2,1.2,0,0,1,0,1.7,1.2,1.2,0,0,1-1.7,0,1.2,1.2,0,0,1,0-1.7,1.159,1.159,0,0,1,.543-.291V-25.9l5.933-5.934h17.946L261.471-164.668l.422.422Zm-12.49-18.7a1.173,1.173,0,0,1-.293.549,1.2,1.2,0,0,1-1.7,0,1.2,1.2,0,0,1,0-1.695,1.2,1.2,0,0,1,1.7,0,1.169,1.169,0,0,1,.293.549h19.162L255.578-170.561l.423.422L125.135-39.273Zm96.634,142.751L181.547,124.29a1.182,1.182,0,0,1-.168,1.442,1.2,1.2,0,1,1-1.695-1.695,1.182,1.182,0,0,1,1.441-.169l20.987-20.987h19.847L375.49-50.649l.422.422L222.207,103.479Zm-2.939-6.985-72.6,72.6a1.181,1.181,0,0,1-.168,1.441,1.2,1.2,0,1,1-1.695-1.7,1.182,1.182,0,0,1,1.441-.169L199.173,95.9H219.02L370.528-55.611l.423.422L219.268,96.494Zm16.909-6.985H196.482l-63.9,63.9a1.181,1.181,0,0,1-.169,1.441,1.2,1.2,0,0,1-1.695-1.7,1.184,1.184,0,0,1,1.442-.169l64.074-64.074h19.847L365.566-60.573l.422.422Zm-39.191-6.948-43.717,43.717v9.593l-6.807,6.807a1.181,1.181,0,0,1-.168,1.441,1.2,1.2,0,1,1-1.7-1.7,1.182,1.182,0,0,1,1.441-.169l6.632-6.632v-9.592l43.717-43.717V62.466L332.573-93.566l.423.422L177.138,62.713ZM163.26,78.325,148.385,93.2a1.182,1.182,0,0,1-.169,1.442,1.2,1.2,0,1,1-1.7-1.695,1.184,1.184,0,0,1,1.442-.169l14.7-14.7V58.23L323.516-102.623l.422.422L163.26,58.477Zm61.762,31.84v.3H205.3L168.91,146.852a1.182,1.182,0,0,1-.168,1.441,1.2,1.2,0,0,1-1.695-1.695,1.181,1.181,0,0,1,1.441-.169l36.563-36.563H224.9L380.452-45.687l.422.422L225.233,110.376Zm30.222-95.9L249.31,20.2H232.327a1.167,1.167,0,0,1-.306.616,1.2,1.2,0,1,1,0-1.695,1.18,1.18,0,0,1,.28.482h16.761l5.584-5.585v-17.1l-10.2,10.2a1.181,1.181,0,0,1-.168,1.441,1.2,1.2,0,1,1-1.695-1.695,1.181,1.181,0,0,1,1.441-.168L254.646-3.926,338.43-87.709l.422.422L255.244-3.678Zm8.035,4.966a1.173,1.173,0,0,1,.549.293,1.2,1.2,0,1,1-1.695,0,1.169,1.169,0,0,1,.549-.293V-.176l81.642-81.641.422.422L263.278.072Zm-24.15,38.824a1.2,1.2,0,1,1-1.695-1.695,1.181,1.181,0,0,1,1.441-.168l26.809-26.81H221.257L188.935,61.707a1.182,1.182,0,0,1-.168,1.442,1.2,1.2,0,1,1-1.695-1.7,1.181,1.181,0,0,1,1.441-.168l32.5-32.5h45.272l94.323-94.323.422.422L239.3,56.617A1.181,1.181,0,0,1,239.129,58.058ZM116.482,231.979,214.8,133.657H228.8l9.349-9.348H211.3L171.51,164.1a1.183,1.183,0,0,1-.169,1.442,1.2,1.2,0,0,1-1.695-1.7,1.182,1.182,0,0,1,1.442-.169l39.966-39.966h27.689l36.045-36.046H262.5a1.16,1.16,0,0,1-.293.549,1.2,1.2,0,1,1,0-1.695,1.165,1.165,0,0,1,.293.549h12.882l18.106-18.106V51.112l91.88-91.88.423.422L294.088,51.36V69.21l-144.1,144.1a1.183,1.183,0,0,1-.176,1.43,1.2,1.2,0,1,1-1.7-1.695,1.181,1.181,0,0,1,1.453-.161L228.2,134.253H215.052l-98.118,98.117a1.183,1.183,0,0,1-.109,1.531,1.2,1.2,0,1,1-.343-1.923ZM105.7,144.1l63.9-63.9V60.348L328.045-98.094l.422.422L170.2,60.6V80.443l-64.074,64.074a1.182,1.182,0,0,1-.168,1.442,1.2,1.2,0,1,1-1.7-1.7A1.184,1.184,0,0,1,105.7,144.1ZM208.326-4.886a1.2,1.2,0,0,1-1.7,0,1.2,1.2,0,0,1,0-1.695,1.183,1.183,0,0,1,1.441-.169L313.731-112.408l.422.422L208.5-6.327A1.183,1.183,0,0,1,208.326-4.886ZM17.323,138.8,56.61,99.515V79.667L92.932,43.345h19.847L152.958,3.167h24.7l24.235-24.236V-34.34l-16.15,16.149-20.371-.131L130.9,16.142l-.422-.422,34.64-34.641,20.371.131,4.5-4.495H160.407L109.871,27.251l-.422-.423,50.71-50.71h30.427l29.06-29.06h0l76.775-76.776.423.422-76.6,76.6V-28L180.064,12.179V32.027L143.742,68.349H123.894L84.6,107.641a1.184,1.184,0,0,1-.192,1.406,1.2,1.2,0,0,1-1.7-1.695,1.183,1.183,0,0,1,1.477-.145l39.455-39.455h19.847l35.973-35.973V11.932l40.179-40.179V-52.1l-17.16,17.159v14.117L177.9,3.764h-24.7L113.027,43.942H93.179L57.207,79.915V99.762L17.746,139.223a1.182,1.182,0,0,1-.169,1.442,1.2,1.2,0,1,1-1.7-1.695A1.182,1.182,0,0,1,17.323,138.8Zm-36.881-21.517L44.516,53.21H64.364l86.443-86.444h30.385L287.048-139.091l.423.422L181.439-32.637H151.055L64.611,53.807H44.763l-63.9,63.9a1.184,1.184,0,0,1-.168,1.442,1.2,1.2,0,0,1-1.7,0,1.2,1.2,0,0,1,0-1.695A1.184,1.184,0,0,1-19.558,117.284ZM-28.45,90.827l63.9-63.9V7.08L234.335-191.8l.422.423L36.047,7.328V27.175L-28.027,91.249a1.184,1.184,0,0,1-.169,1.442,1.2,1.2,0,0,1-1.7,0,1.2,1.2,0,0,1,0-1.695A1.182,1.182,0,0,1-28.45,90.827Zm-15.683,5.76,72.6-72.6V4.141L229.373-196.766l.422.422L29.062,4.389V24.236L-43.71,97.009a1.182,1.182,0,0,1-.169,1.441,1.2,1.2,0,0,1-1.695,0,1.2,1.2,0,0,1,0-1.695A1.181,1.181,0,0,1-44.133,96.587ZM113.405-48.91a1.2,1.2,0,0,1-1.7,0,1.2,1.2,0,0,1,0-1.695,1.182,1.182,0,0,1,1.442-.169L244.259-181.881l.422.422L113.574-50.352A1.183,1.183,0,0,1,113.405-48.91Zm83.812,65.057a1.2,1.2,0,0,1-1.7-1.695,1.181,1.181,0,0,1,1.441-.169l121.73-121.73.422.423L197.385,14.7A1.182,1.182,0,0,1,197.217,16.147Zm76.833-2.934a1.2,1.2,0,0,1-1.7-1.7,1.181,1.181,0,0,1,1.441-.168L355.643-70.5l.422.422L274.219,11.772A1.182,1.182,0,0,1,274.05,13.213Z" transform="translate(734.683 4465.859) rotate(-45)"/><path class="a" d="M22.077,1.45,224.833-201.306l-.422-.422L21.48,1.2V21.05L.668,41.862a1.181,1.181,0,0,0-1.441.168A1.2,1.2,0,0,0,.922,43.725a1.182,1.182,0,0,0,.169-1.441L22.077,21.3ZM42.646,46.868-1.071,90.585h-9.594L-17.3,97.217a1.181,1.181,0,0,1-.168,1.441,1.2,1.2,0,0,1-1.695,0,1.2,1.2,0,0,1,0-1.695,1.181,1.181,0,0,1,1.441-.168l6.807-6.807h9.593L42.4,46.271H62.246L267.328-158.811l.422.422L62.493,46.868ZM155.994-28.108,67.14,60.746H47.292L31.955,76.084a1.184,1.184,0,0,1-.292,1.153,1.2,1.2,0,1,1-.007-1.7L47.045,60.149H66.892l88.855-88.855h30.274L291.727-134.412l.422.422L186.268-28.109ZM-9.295,8.358V-4.791L-88.872,74.786l-.422-.422L55.873-70.8,69.717-56.958,219.449-206.69l.423.422L69.928-56.325h0l-.211.211h0L15.093-1.489V18.359L-21.47,54.921a1.184,1.184,0,0,1-.169,1.442,1.2,1.2,0,0,1-1.7,0,1.2,1.2,0,0,1,0-1.695,1.182,1.182,0,0,1,1.442-.169L14.5,18.111V-1.613h.3l-.211-.211L69.3-56.536,55.873-69.958,1.248-15.334V12.355L-38.718,52.322a1.181,1.181,0,0,1-.169,1.441,1.2,1.2,0,0,1-1.7,0,1.2,1.2,0,0,1,0-1.695A1.184,1.184,0,0,1-39.14,51.9L.651,12.108V-14.737L-8.7-5.388V8.6l-99.112,99.112-.422-.422ZM96.171,2.4l-32.5,32.5a1.182,1.182,0,0,1-.168,1.442,1.2,1.2,0,0,1-1.7-1.7,1.184,1.184,0,0,1,1.442-.168L95.574,2.152V-42.275L68.764-15.466a1.182,1.182,0,0,1-.168,1.442,1.2,1.2,0,0,1-1.695,0,1.2,1.2,0,0,1,0-1.695,1.181,1.181,0,0,1,1.441-.169L239.3-186.842l.422.422L96.171-42.872Zm22.044-22.968a1.182,1.182,0,0,1-.168,1.442,1.2,1.2,0,0,1-1.7,0,1.2,1.2,0,0,1,0-1.7,1.182,1.182,0,0,1,1.441-.168L128.04-31.237h-17.1l-5.584,5.584V-8.979a1.172,1.172,0,0,1,.555.294,1.2,1.2,0,0,1,0,1.7,1.2,1.2,0,0,1-1.7,0,1.2,1.2,0,0,1,0-1.7,1.159,1.159,0,0,1,.543-.291V-25.9l5.933-5.934h17.946L261.471-164.668l.422.422Zm-12.49-18.7a1.173,1.173,0,0,1-.293.549,1.2,1.2,0,0,1-1.7,0,1.2,1.2,0,0,1,0-1.695,1.2,1.2,0,0,1,1.7,0,1.169,1.169,0,0,1,.293.549h19.162L255.578-170.561l.423.422L125.135-39.273Zm96.634,142.751L181.547,124.29a1.182,1.182,0,0,1-.168,1.442,1.2,1.2,0,1,1-1.695-1.695,1.182,1.182,0,0,1,1.441-.169l20.987-20.987h19.847L375.49-50.649l.422.422L222.207,103.479Zm-2.939-6.985-72.6,72.6a1.181,1.181,0,0,1-.168,1.441,1.2,1.2,0,1,1-1.695-1.7,1.182,1.182,0,0,1,1.441-.169L199.173,95.9H219.02L370.528-55.611l.423.422L219.268,96.494Zm16.909-6.985H196.482l-63.9,63.9a1.181,1.181,0,0,1-.169,1.441,1.2,1.2,0,0,1-1.695-1.7,1.184,1.184,0,0,1,1.442-.169l64.074-64.074h19.847L365.566-60.573l.422.422Zm-39.191-6.948-43.717,43.717v9.593l-6.807,6.807a1.181,1.181,0,0,1-.168,1.441,1.2,1.2,0,1,1-1.7-1.7,1.182,1.182,0,0,1,1.441-.169l6.632-6.632v-9.592l43.717-43.717V62.466L332.573-93.566l.423.422L177.138,62.713ZM163.26,78.325,148.385,93.2a1.182,1.182,0,0,1-.169,1.442,1.2,1.2,0,1,1-1.7-1.695,1.184,1.184,0,0,1,1.442-.169l14.7-14.7V58.23L323.516-102.623l.422.422L163.26,58.477Zm61.762,31.84v.3H205.3L168.91,146.852a1.182,1.182,0,0,1-.168,1.441,1.2,1.2,0,0,1-1.695-1.695,1.181,1.181,0,0,1,1.441-.169l36.563-36.563H224.9L380.452-45.687l.422.422L225.233,110.376Zm30.222-95.9L249.31,20.2H232.327a1.167,1.167,0,0,1-.306.616,1.2,1.2,0,1,1,0-1.695,1.18,1.18,0,0,1,.28.482h16.761l5.584-5.585v-17.1l-10.2,10.2a1.181,1.181,0,0,1-.168,1.441,1.2,1.2,0,1,1-1.695-1.695,1.181,1.181,0,0,1,1.441-.168L254.646-3.926,338.43-87.709l.422.422L255.244-3.678Zm8.035,4.966a1.173,1.173,0,0,1,.549.293,1.2,1.2,0,1,1-1.695,0,1.169,1.169,0,0,1,.549-.293V-.176l81.642-81.641.422.422L263.278.072Zm-24.15,38.824a1.2,1.2,0,1,1-1.695-1.695,1.181,1.181,0,0,1,1.441-.168l26.809-26.81H221.257L188.935,61.707a1.182,1.182,0,0,1-.168,1.442,1.2,1.2,0,1,1-1.695-1.7,1.181,1.181,0,0,1,1.441-.168l32.5-32.5h45.272l94.323-94.323.422.422L239.3,56.617A1.181,1.181,0,0,1,239.129,58.058ZM116.482,231.979,214.8,133.657H228.8l9.349-9.348H211.3L171.51,164.1a1.183,1.183,0,0,1-.169,1.442,1.2,1.2,0,0,1-1.695-1.7,1.182,1.182,0,0,1,1.442-.169l39.966-39.966h27.689l36.045-36.046H262.5a1.16,1.16,0,0,1-.293.549,1.2,1.2,0,1,1,0-1.695,1.165,1.165,0,0,1,.293.549h12.882l18.106-18.106V51.112l91.88-91.88.423.422L294.088,51.36V69.21l-144.1,144.1a1.183,1.183,0,0,1-.176,1.43,1.2,1.2,0,1,1-1.7-1.695,1.181,1.181,0,0,1,1.453-.161L228.2,134.253H215.052l-98.118,98.117a1.183,1.183,0,0,1-.109,1.531,1.2,1.2,0,1,1-.343-1.923ZM105.7,144.1l63.9-63.9V60.348L328.045-98.094l.422.422L170.2,60.6V80.443l-64.074,64.074a1.182,1.182,0,0,1-.168,1.442,1.2,1.2,0,1,1-1.7-1.7A1.184,1.184,0,0,1,105.7,144.1ZM208.326-4.886a1.2,1.2,0,0,1-1.7,0,1.2,1.2,0,0,1,0-1.695,1.183,1.183,0,0,1,1.441-.169L313.731-112.408l.422.422L208.5-6.327A1.183,1.183,0,0,1,208.326-4.886ZM17.323,138.8,56.61,99.515V79.667L92.932,43.345h19.847L152.958,3.167h24.7l24.235-24.236V-34.34l-16.15,16.149-20.371-.131L130.9,16.142l-.422-.422,34.64-34.641,20.371.131,4.5-4.495H160.407L109.871,27.251l-.422-.423,50.71-50.71h30.427l29.06-29.06h0l76.775-76.776.423.422-76.6,76.6V-28L180.064,12.179V32.027L143.742,68.349H123.894L84.6,107.641a1.184,1.184,0,0,1-.192,1.406,1.2,1.2,0,0,1-1.7-1.695,1.183,1.183,0,0,1,1.477-.145l39.455-39.455h19.847l35.973-35.973V11.932l40.179-40.179V-52.1l-17.16,17.159v14.117L177.9,3.764h-24.7L113.027,43.942H93.179L57.207,79.915V99.762L17.746,139.223a1.182,1.182,0,0,1-.169,1.442,1.2,1.2,0,1,1-1.7-1.695A1.182,1.182,0,0,1,17.323,138.8Zm-36.881-21.517L44.516,53.21H64.364l86.443-86.444h30.385L287.048-139.091l.423.422L181.439-32.637H151.055L64.611,53.807H44.763l-63.9,63.9a1.184,1.184,0,0,1-.168,1.442,1.2,1.2,0,0,1-1.7,0,1.2,1.2,0,0,1,0-1.695A1.184,1.184,0,0,1-19.558,117.284ZM-28.45,90.827l63.9-63.9V7.08L234.335-191.8l.422.423L36.047,7.328V27.175L-28.027,91.249a1.184,1.184,0,0,1-.169,1.442,1.2,1.2,0,0,1-1.7,0,1.2,1.2,0,0,1,0-1.695A1.182,1.182,0,0,1-28.45,90.827Zm-15.683,5.76,72.6-72.6V4.141L229.373-196.766l.422.422L29.062,4.389V24.236L-43.71,97.009a1.182,1.182,0,0,1-.169,1.441,1.2,1.2,0,0,1-1.695,0,1.2,1.2,0,0,1,0-1.695A1.181,1.181,0,0,1-44.133,96.587ZM113.405-48.91a1.2,1.2,0,0,1-1.7,0,1.2,1.2,0,0,1,0-1.695,1.182,1.182,0,0,1,1.442-.169L244.259-181.881l.422.422L113.574-50.352A1.183,1.183,0,0,1,113.405-48.91Zm83.812,65.057a1.2,1.2,0,0,1-1.7-1.695,1.181,1.181,0,0,1,1.441-.169l121.73-121.73.422.423L197.385,14.7A1.182,1.182,0,0,1,197.217,16.147Zm76.833-2.934a1.2,1.2,0,0,1-1.7-1.7,1.181,1.181,0,0,1,1.441-.168L355.643-70.5l.422.422L274.219,11.772A1.182,1.182,0,0,1,274.05,13.213Z" transform="translate(458.683 4419.859) rotate(-45)"/><path class="b" d="M22.077,1.45,224.833-201.306l-.422-.422L21.48,1.2V21.05L.668,41.862a1.181,1.181,0,0,0-1.441.168A1.2,1.2,0,0,0,.922,43.725a1.182,1.182,0,0,0,.169-1.441L22.077,21.3ZM42.646,46.868-1.071,90.585h-9.594L-17.3,97.217a1.181,1.181,0,0,1-.168,1.441,1.2,1.2,0,0,1-1.695,0,1.2,1.2,0,0,1,0-1.695,1.181,1.181,0,0,1,1.441-.168l6.807-6.807h9.593L42.4,46.271H62.246L267.328-158.811l.422.422L62.493,46.868ZM155.994-28.108,67.14,60.746H47.292L31.955,76.084a1.184,1.184,0,0,1-.292,1.153,1.2,1.2,0,1,1-.007-1.7L47.045,60.149H66.892l88.855-88.855h30.274L291.727-134.412l.422.422L186.268-28.109ZM-9.295,8.358V-4.791L-88.872,74.786l-.422-.422L55.873-70.8,69.717-56.958,219.449-206.69l.423.422L69.928-56.325h0l-.211.211h0L15.093-1.489V18.359L-21.47,54.921a1.184,1.184,0,0,1-.169,1.442,1.2,1.2,0,0,1-1.7,0,1.2,1.2,0,0,1,0-1.695,1.182,1.182,0,0,1,1.442-.169L14.5,18.111V-1.613h.3l-.211-.211L69.3-56.536,55.873-69.958,1.248-15.334V12.355L-38.718,52.322a1.181,1.181,0,0,1-.169,1.441,1.2,1.2,0,0,1-1.7,0,1.2,1.2,0,0,1,0-1.695A1.184,1.184,0,0,1-39.14,51.9L.651,12.108V-14.737L-8.7-5.388V8.6l-99.112,99.112-.422-.422ZM96.171,2.4l-32.5,32.5a1.182,1.182,0,0,1-.168,1.442,1.2,1.2,0,0,1-1.7-1.7,1.184,1.184,0,0,1,1.442-.168L95.574,2.152V-42.275L68.764-15.466a1.182,1.182,0,0,1-.168,1.442,1.2,1.2,0,0,1-1.695,0,1.2,1.2,0,0,1,0-1.695,1.181,1.181,0,0,1,1.441-.169L239.3-186.842l.422.422L96.171-42.872Zm22.044-22.968a1.182,1.182,0,0,1-.168,1.442,1.2,1.2,0,0,1-1.7,0,1.2,1.2,0,0,1,0-1.7,1.182,1.182,0,0,1,1.441-.168L128.04-31.237h-17.1l-5.584,5.584V-8.979a1.172,1.172,0,0,1,.555.294,1.2,1.2,0,0,1,0,1.7,1.2,1.2,0,0,1-1.7,0,1.2,1.2,0,0,1,0-1.7,1.159,1.159,0,0,1,.543-.291V-25.9l5.933-5.934h17.946L261.471-164.668l.422.422Zm-12.49-18.7a1.173,1.173,0,0,1-.293.549,1.2,1.2,0,0,1-1.7,0,1.2,1.2,0,0,1,0-1.695,1.2,1.2,0,0,1,1.7,0,1.169,1.169,0,0,1,.293.549h19.162L255.578-170.561l.423.422L125.135-39.273Zm96.634,142.751L181.547,124.29a1.182,1.182,0,0,1-.168,1.442,1.2,1.2,0,1,1-1.695-1.695,1.182,1.182,0,0,1,1.441-.169l20.987-20.987h19.847L375.49-50.649l.422.422L222.207,103.479Zm-2.939-6.985-72.6,72.6a1.181,1.181,0,0,1-.168,1.441,1.2,1.2,0,1,1-1.695-1.7,1.182,1.182,0,0,1,1.441-.169L199.173,95.9H219.02L370.528-55.611l.423.422L219.268,96.494Zm16.909-6.985H196.482l-63.9,63.9a1.181,1.181,0,0,1-.169,1.441,1.2,1.2,0,0,1-1.695-1.7,1.184,1.184,0,0,1,1.442-.169l64.074-64.074h19.847L365.566-60.573l.422.422Zm-39.191-6.948-43.717,43.717v9.593l-6.807,6.807a1.181,1.181,0,0,1-.168,1.441,1.2,1.2,0,1,1-1.7-1.7,1.182,1.182,0,0,1,1.441-.169l6.632-6.632v-9.592l43.717-43.717V62.466L332.573-93.566l.423.422L177.138,62.713ZM163.26,78.325,148.385,93.2a1.182,1.182,0,0,1-.169,1.442,1.2,1.2,0,1,1-1.7-1.695,1.184,1.184,0,0,1,1.442-.169l14.7-14.7V58.23L323.516-102.623l.422.422L163.26,58.477Zm61.762,31.84v.3H205.3L168.91,146.852a1.182,1.182,0,0,1-.168,1.441,1.2,1.2,0,0,1-1.695-1.695,1.181,1.181,0,0,1,1.441-.169l36.563-36.563H224.9L380.452-45.687l.422.422L225.233,110.376Zm30.222-95.9L249.31,20.2H232.327a1.167,1.167,0,0,1-.306.616,1.2,1.2,0,1,1,0-1.695,1.18,1.18,0,0,1,.28.482h16.761l5.584-5.585v-17.1l-10.2,10.2a1.181,1.181,0,0,1-.168,1.441,1.2,1.2,0,1,1-1.695-1.695,1.181,1.181,0,0,1,1.441-.168L254.646-3.926,338.43-87.709l.422.422L255.244-3.678Zm8.035,4.966a1.173,1.173,0,0,1,.549.293,1.2,1.2,0,1,1-1.695,0,1.169,1.169,0,0,1,.549-.293V-.176l81.642-81.641.422.422L263.278.072Zm-24.15,38.824a1.2,1.2,0,1,1-1.695-1.695,1.181,1.181,0,0,1,1.441-.168l26.809-26.81H221.257L188.935,61.707a1.182,1.182,0,0,1-.168,1.442,1.2,1.2,0,1,1-1.695-1.7,1.181,1.181,0,0,1,1.441-.168l32.5-32.5h45.272l94.323-94.323.422.422L239.3,56.617A1.181,1.181,0,0,1,239.129,58.058ZM116.482,231.979,214.8,133.657H228.8l9.349-9.348H211.3L171.51,164.1a1.183,1.183,0,0,1-.169,1.442,1.2,1.2,0,0,1-1.695-1.7,1.182,1.182,0,0,1,1.442-.169l39.966-39.966h27.689l36.045-36.046H262.5a1.16,1.16,0,0,1-.293.549,1.2,1.2,0,1,1,0-1.695,1.165,1.165,0,0,1,.293.549h12.882l18.106-18.106V51.112l91.88-91.88.423.422L294.088,51.36V69.21l-144.1,144.1a1.183,1.183,0,0,1-.176,1.43,1.2,1.2,0,1,1-1.7-1.695,1.181,1.181,0,0,1,1.453-.161L228.2,134.253H215.052l-98.118,98.117a1.183,1.183,0,0,1-.109,1.531,1.2,1.2,0,1,1-.343-1.923ZM105.7,144.1l63.9-63.9V60.348L328.045-98.094l.422.422L170.2,60.6V80.443l-64.074,64.074a1.182,1.182,0,0,1-.168,1.442,1.2,1.2,0,1,1-1.7-1.7A1.184,1.184,0,0,1,105.7,144.1ZM208.326-4.886a1.2,1.2,0,0,1-1.7,0,1.2,1.2,0,0,1,0-1.695,1.183,1.183,0,0,1,1.441-.169L313.731-112.408l.422.422L208.5-6.327A1.183,1.183,0,0,1,208.326-4.886ZM17.323,138.8,56.61,99.515V79.667L92.932,43.345h19.847L152.958,3.167h24.7l24.235-24.236V-34.34l-16.15,16.149-20.371-.131L130.9,16.142l-.422-.422,34.64-34.641,20.371.131,4.5-4.495H160.407L109.871,27.251l-.422-.423,50.71-50.71h30.427l29.06-29.06h0l76.775-76.776.423.422-76.6,76.6V-28L180.064,12.179V32.027L143.742,68.349H123.894L84.6,107.641a1.184,1.184,0,0,1-.192,1.406,1.2,1.2,0,0,1-1.7-1.695,1.183,1.183,0,0,1,1.477-.145l39.455-39.455h19.847l35.973-35.973V11.932l40.179-40.179V-52.1l-17.16,17.159v14.117L177.9,3.764h-24.7L113.027,43.942H93.179L57.207,79.915V99.762L17.746,139.223a1.182,1.182,0,0,1-.169,1.442,1.2,1.2,0,1,1-1.7-1.695A1.182,1.182,0,0,1,17.323,138.8Zm-36.881-21.517L44.516,53.21H64.364l86.443-86.444h30.385L287.048-139.091l.423.422L181.439-32.637H151.055L64.611,53.807H44.763l-63.9,63.9a1.184,1.184,0,0,1-.168,1.442,1.2,1.2,0,0,1-1.7,0,1.2,1.2,0,0,1,0-1.695A1.184,1.184,0,0,1-19.558,117.284ZM-28.45,90.827l63.9-63.9V7.08L234.335-191.8l.422.423L36.047,7.328V27.175L-28.027,91.249a1.184,1.184,0,0,1-.169,1.442,1.2,1.2,0,0,1-1.7,0,1.2,1.2,0,0,1,0-1.695A1.182,1.182,0,0,1-28.45,90.827Zm-15.683,5.76,72.6-72.6V4.141L229.373-196.766l.422.422L29.062,4.389V24.236L-43.71,97.009a1.182,1.182,0,0,1-.169,1.441,1.2,1.2,0,0,1-1.695,0,1.2,1.2,0,0,1,0-1.695A1.181,1.181,0,0,1-44.133,96.587ZM113.405-48.91a1.2,1.2,0,0,1-1.7,0,1.2,1.2,0,0,1,0-1.695,1.182,1.182,0,0,1,1.442-.169L244.259-181.881l.422.422L113.574-50.352A1.183,1.183,0,0,1,113.405-48.91Zm83.812,65.057a1.2,1.2,0,0,1-1.7-1.695,1.181,1.181,0,0,1,1.441-.169l121.73-121.73.422.423L197.385,14.7A1.182,1.182,0,0,1,197.217,16.147Zm76.833-2.934a1.2,1.2,0,0,1-1.7-1.7,1.181,1.181,0,0,1,1.441-.168L355.643-70.5l.422.422L274.219,11.772A1.182,1.182,0,0,1,274.05,13.213Z" transform="translate(179.683 4415.859) rotate(-45)"/></g></svg>