<svg xmlns="http://www.w3.org/2000/svg" width="211.5" height="432" viewBox="0 0 211.5 432"><defs><style>.a,.b{fill:none;stroke:#888b95;stroke-miterlimit:10;}.b{stroke-linecap:round;}.c{fill:#888b95;}</style></defs><g transform="translate(-55.384 -71.5)"><rect class="a" width="210.5" height="431" rx="30" transform="translate(55.884 72)"/><path class="b" d="M254.884,495.91V105.3a20.8,20.8,0,0,0-20.8-20.8H216.134a2.75,2.75,0,0,0-2.75,2.75V90a9.5,9.5,0,0,1-9.5,9.5h-85.5a9.5,9.5,0,0,1-9.5-9.5V87.25a2.75,2.75,0,0,0-2.75-2.75H88.187a20.8,20.8,0,0,0-20.8,20.8V495.91"/><path class="c" d="M173.259,90.625h-24.5a1.75,1.75,0,0,1,0-3.5h24.5a1.75,1.75,0,0,1,0,3.5"/><path class="c" d="M186.884,89a3.25,3.25,0,1,1-3.25-3.25,3.25,3.25,0,0,1,3.25,3.25"/></g></svg>