<svg xmlns="http://www.w3.org/2000/svg" width="16" height="16" viewBox="0 0 16 16"><defs><style>.a{fill:#9c6;}</style></defs><path class="a" d="M.033,6.428a.3.3,0,0,1,.184-.219,7.051,7.051,0,0,1,2.62-.5A7.586,7.586,0,0,1,5.765,6.3l4.5-3.821A3.372,3.372,0,0,1,10.881.112.3.3,0,0,1,11.1,0a.313.313,0,0,1,.23.088l4.609,4.6a.3.3,0,0,1-.026.45,3.257,3.257,0,0,1-2.022.632c-.124,0-.231-.006-.312-.012L9.736,10.275a7.9,7.9,0,0,1,.093,5.534.3.3,0,0,1-.494.1l-4.4-4.4-4.1,4.1A.3.3,0,0,1,.4,15.183l4.1-4.1L.116,6.7A.3.3,0,0,1,.033,6.428Z" transform="translate(-0.027 0)"/></svg>