<svg xmlns="http://www.w3.org/2000/svg" width="72" height="82.002" viewBox="0 0 72 82.002"><defs><style>.a{fill:#9c6;stroke:#9c6;stroke-width:2px;}</style></defs><g transform="translate(-31 1.002)"><g transform="translate(48.666 26.669)"><g transform="translate(0)"><path class="a" d="M178.172,171.17a1.668,1.668,0,0,0-2.357,0l-22.153,22.153L141.505,181.17a1.666,1.666,0,0,0-2.357,2.357l13.333,13.333a1.67,1.67,0,0,0,2.357,0l23.333-23.333A1.668,1.668,0,0,0,178.172,171.17Z" transform="translate(-138.661 -170.683)"/></g></g><g transform="translate(32 0)"><path class="a" d="M100.81,10.07,67.477.07a1.67,1.67,0,0,0-.957,0l-33.333,10A1.666,1.666,0,0,0,32,11.667V48.334c0,14.74,22.473,27.85,34.507,31.593a1.7,1.7,0,0,0,.987,0C79.527,76.18,102,63.074,102,48.334V11.667A1.668,1.668,0,0,0,100.81,10.07ZM98.667,48.334c0,11.7-18.543,24.01-31.667,28.253-13.123-4.243-31.667-16.55-31.667-28.253V12.907L67,3.407l31.667,9.5Z" transform="translate(-32 0)"/></g></g></svg>