<svg xmlns="http://www.w3.org/2000/svg" width="434.727" height="360" viewBox="0 0 434.727 360"><defs><style>.a,.d{fill:#b0b4c1;}.a,.g{opacity:0.2;}.b{fill:#9c6;}.c{fill:#3f3d56;}.d{opacity:0.4;}.e{fill:#6c63ff;}.f{fill:#a8a8a8;}.h{opacity:0.1;}.i{fill:#ffb9b9;}.j{fill:#2a2e36;}.k{fill:#2f2e41;}.l{fill:#f2f2f2;}.m{fill:#1b1e28;}.n{fill:#fff;}.o{fill:#6575f7;}</style></defs><g transform="translate(0 0)"><path class="a" d="M509.984,258.3c-2.386,20.446-7.345,36.861-14.151,49.953-9.057,17.443-24.549,24.472-38.387,31.826a87.53,87.53,0,0,1-12.435,5.407c-25.182,8.74-53.367,6.421-75.507,1.807a297.646,297.646,0,0,0-47.136-5.959q-6.779-.306-13.572-.3c-6.983.009-132.714,2.4-163.326-59.58-7.558-15.288-12.738-33.963-14.6-56.727C125.6,160.364,154.549,118.1,191.886,90.468c70.63-52.262,167.442-50.071,237.031,3.568C475.27,129.765,518.67,183.839,509.984,258.3Z" transform="translate(-125.608 -52.509)"/><path class="b" d="M255.852,325.362c0,51.156-30.412,69.018-67.926,69.018S120,376.518,120,325.362s67.926-116.235,67.926-116.235S255.852,274.206,255.852,325.362Z" transform="translate(-120 -138.204)"/><path class="c" d="M111.549,334.046l.7-42.813L141.2,238.267l-28.843,46.25.312-19.25,19.954-38.32-19.871,33.226h0l.562-34.623,21.367-30.508L113.4,220.1l.351-63.486-2.208,84.044.182-3.467L90,203.943l21.375,39.907-2.024,38.668-.06-1.027L84.248,246.5l24.967,38.618-.253,4.836-.045.072.021.4-5.135,98.1h6.861l.823-50.672,24.906-38.524Z" transform="translate(-46.097 -85.695)"/><path class="b" d="M915.852,332.362c0,51.156-30.412,69.018-67.926,69.018S780,383.518,780,332.362s67.926-116.235,67.926-116.235S915.852,281.206,915.852,332.362Z" transform="translate(-481.125 -142.034)"/><path class="c" d="M771.549,341.046l.7-42.813L801.2,245.267l-28.843,46.25.312-19.25,19.953-38.32-19.871,33.226h0l.562-34.623,21.367-30.508L773.4,227.1l.351-63.486-2.209,84.044.182-3.467L750,210.943l21.375,39.907-2.024,38.668-.06-1.027L744.248,253.5l24.967,38.618-.253,4.836-.045.072.021.4-5.135,98.1h6.861l.823-50.672,24.906-38.524Z" transform="translate(-407.222 -89.525)"/><path class="b" d="M588.532,223.312c0,55.931-33.25,75.46-74.266,75.46S440,279.242,440,223.312,514.266,96.228,514.266,96.228,588.532,167.381,588.532,223.312Z" transform="translate(-295.091 -76.43)"/><path class="c" d="M441.96,237.707l.76-46.809,31.654-57.909L442.84,183.554l.342-21.047L465,120.61l-21.725,36.327h0l.615-37.854,23.361-33.355-23.264,27.4.384-69.411-2.415,91.888.2-3.791L418.4,95.462l23.37,43.632-2.213,42.277-.066-1.123L412.111,141.99l27.3,42.222-.277,5.287-.049.08.023.434-5.615,107.26h7.5l.9-55.4,27.231-42.119Z" transform="translate(-225.49 -23.921)"/><path class="a" d="M527.4,691.435c0,12-78.665,49.36-175.7,49.36S176,703.44,176,691.435s72.325-38.944,169.363-38.944S527.4,679.43,527.4,691.435Z" transform="translate(-150.641 -380.795)"/><path class="d" d="M527.4,691.435c0,12-78.665,21.736-175.7,21.736S176,703.44,176,691.435s72.325-38.944,169.363-38.944S527.4,679.43,527.4,691.435Z" transform="translate(-150.641 -380.795)"/><path class="c" d="M694.429,605.571c0,17.221,10.8,31.156,24.155,31.156" transform="translate(-434.304 -355.122)"/><path class="e" d="M747.769,636.3c0-17.415,12.056-31.506,26.955-31.506" transform="translate(-463.49 -354.699)"/><path class="e" d="M713.755,609.018c0,16.358,6.889,29.6,15.4,29.6" transform="translate(-444.879 -357.008)"/><path class="c" d="M747.769,625.73c0-22.252,13.935-40.258,31.156-40.258" transform="translate(-463.49 -344.125)"/><path class="f" d="M736.548,672.621s3.426-.106,4.458-.841,5.269-1.613,5.525-.434,5.148,5.864,1.281,5.9-8.986-.6-10.017-1.23S736.548,672.621,736.548,672.621Z" transform="translate(-457.35 -390.796)"/><path class="g" d="M747.881,679.063c-3.867.031-8.986-.6-10.017-1.23-.785-.478-1.1-2.193-1.2-2.984l-.114,0s.217,2.763,1.247,3.39,6.149,1.261,10.017,1.23c1.116-.009,1.5-.406,1.481-.994C749.138,678.834,748.712,679.056,747.881,679.063Z" transform="translate(-457.35 -393.028)"/><ellipse class="h" cx="59.775" cy="9.51" rx="59.775" ry="9.51" transform="translate(143.551 298.867)"/><rect class="i" width="5.887" height="13.585" transform="translate(223.703 287.093)"/><path class="j" d="M0,0H22.642V40.756H0Z" transform="translate(207.401 103.692)"/><path class="i" d="M517.576,399.312l.783,6.27-20.636,6.269-2.612-11.494Z" transform="translate(-270.904 -218.487)"/><path class="i" d="M588.391,316.264s-.522,4.7-1.567,4.7-4.7,1.829-4.7,1.829l-1.045,4.963,7.314,4.441,12.016-1.306,3.4-5.224-3.4-3.4s-2.873-6.269-1.829-7.575S588.391,316.264,588.391,316.264Z" transform="translate(-372.282 -195.781)"/><path class="h" d="M588.391,316.264s-.522,4.7-1.567,4.7-4.7,1.829-4.7,1.829l-1.045,4.963,7.314,4.441,12.016-1.306,3.4-5.224-3.4-3.4s-2.873-6.269-1.829-7.575S588.391,316.264,588.391,316.264Z" transform="translate(-372.282 -195.781)"/><path class="i" d="M518.335,677.948s-2.351,15.673-5.224,16.718,10.971,2.873,10.971,2.873l1.045-5.747s.261-10.449,1.306-12.016S518.335,677.948,518.335,677.948Z" transform="translate(-334.879 -394.724)"/><path class="k" d="M549.96,466.718s37.877-6.792,38.139-8.1,7.837,9.927,3.135,31.869-16.457,73.665-16.457,73.665-12.016,3.657-11.755.784,4.18-52.767,4.18-52.767l-2.612-21.159-4.441,2.612L541.6,530.2,532.2,561.8s-12.016,2.09-10.188-2.351,7.837-38.922,7.837-38.922L546.3,471.943S545.78,466.718,549.96,466.718Z" transform="translate(-339.859 -274.661)"/><circle class="i" cx="10.971" cy="10.971" r="10.971" transform="translate(208.664 102.066)"/><path class="l" d="M603.287,332.413s-5.224,4.963-17.5,3.657,3.4,27.951,3.4,27.951l4.963,29.518s21.943-2.612,22.726-7.576S603.287,332.413,603.287,332.413Z" transform="translate(-372.289 -205.661)"/><path class="k" d="M582.268,353.837s-6.269-3.135-8.62-11.755-4.441-17.5-5.747-17.241c-1.1.221-11.331,4.166-14.645,6.8-.611.486-.987.928-1.028,1.294-.261,2.351,9.4,25.861,9.4,25.861s7.575,16.979,4.441,22.465-3.4,12.539,2.351,12.016,24.816-1.567,22.2-16.2c0,0,4.963,10.188,18.808,2.873,0,0,8.359-1.306,8.1-4.18s-13.322-27.69-13.322-27.69-2.09-10.971,1.829-15.151l-8.882-10.449s-2.09-3.135-4.18-1.567a53.944,53.944,0,0,1-7.575,4.441c-.784.261-1.3-.939-1.3-.939a22.712,22.712,0,0,0-2.1,12.171A133.009,133.009,0,0,1,582.268,353.837Z" transform="translate(-356.495 -199.134)"/><path class="k" d="M499.121,701s-.583-1.829-3.949,0c0,0,1.075-5.747-2.582-5.747s-4.963,6.792-4.963,6.792-1.045,4.441-8.1,6.269-1.567,8.1,3.4,8.1,11.494-3.918,11.494-3.918,13.584.261,13.845-2.351-1.306-10.449-2.351-10.449-3.135,3.657-3.135,3.657Z" transform="translate(-314.882 -404.193)"/><path class="k" d="M614.556,696.384s-3.657-3.918-5.747,2.612-3.657,9.143-2.351,10.188,2.351.522,1.829,2.612,1.567,6.531,6.269,6.531,6.008-3.4,5.747-5.747-2.351-5.224-2.351-5.224l-2.09-7.314Z" transform="translate(-385.909 -404.174)"/><path class="i" d="M643.561,292.033l-13.845,4.7s-12.539,7.314-7.053,8.882,10.188-4.7,10.188-4.7l12.016-3.135Z" transform="translate(-394.277 -183.567)"/><path class="m" d="M576.738,261.76a20.258,20.258,0,0,0-4.2,4.225c-2.528,3.162-5,6.939-4.382,10.939.237,1.519.912,2.933,1.292,4.423a23.3,23.3,0,0,1,.442,6.19,8.357,8.357,0,0,1-.324,2.61,17.2,17.2,0,0,1-1.287,2.379c-1.258,2.343-1.289,5.128-1.29,7.787a6.641,6.641,0,0,0,.358,2.641,10.5,10.5,0,0,0,1.513,2.117,9.132,9.132,0,0,1,1.407,8.273,3.584,3.584,0,0,0,3.256-2.053,4.539,4.539,0,0,1-1.161,3.692c2.99-.889,6.2-2.387,7.287-5.309a11.251,11.251,0,0,0,.537-3.068c.581-7.33.912-14.935-1.717-21.8-.841-2.2-1.986-4.324-2.268-6.659s.58-5.035,2.726-6a2.474,2.474,0,0,0,.747,1.574c.478.355,1.361.132,1.37-.463l1.036,1.443a2.532,2.532,0,0,0,.984-.859l.711.87,1.511-1.1,1.312,1.415a2.792,2.792,0,0,0,1.152-1.254c.282.422.631.885,1.136.931,1.1.1,1.328-1.647,2.289-2.192a1.622,1.622,0,0,1,2.025.614,3.306,3.306,0,0,1,.408,2.238c-.4,3.592-3.463,6.87-2.554,10.367.511,1.967,2.232,3.544,2.362,5.572.1,1.621-.849,3.154-.834,4.778.017,1.9,1.332,3.52,2.616,4.925q3.427,3.751,7.214,7.151l-.78-1.365a2.533,2.533,0,0,1,1.986.73,3.434,3.434,0,0,0-.5-2.338,37.459,37.459,0,0,1-4.049-13.984c-.352-6.781,2.086-13.667.541-20.278a17.5,17.5,0,0,0-5.9-9.432,7.037,7.037,0,0,0-4.363-2.011,32.929,32.929,0,0,0-6.215.049,14.227,14.227,0,0,0-6.4,2.231Z" transform="translate(-364.568 -165.688)"/><path class="k" d="M646.838,299.4a21.121,21.121,0,0,0,4.18,0,10.876,10.876,0,0,0,3.135-1.567l9.926-7.314-8.62,1.306s1.567-12.016,1.045-12.277,25.339-5.224,24.816,2.873-15.151,24.032-23.51,27.167l-5.486.784Z" transform="translate(-408.264 -175.779)"/><rect class="n" width="123.173" height="28.982" transform="translate(143.551 216.227)"/><rect class="o" width="91.474" height="15.397" transform="translate(159.174 222.794)"/><path class="n" d="M503.731,554.049c-.037-.395-1.783-.57-4.179-.472,1.388-1.955,2.193-3.515,1.881-3.761-.294-.232-1.494.771-2.957,2.4-.138-2.184-.459-3.715-.833-3.715-.408,0-.753,1.822-.866,4.325-2.035-1.463-3.678-2.322-3.931-2s.858,1.6,2.606,3.141c-2.307.342-3.933.826-3.9,1.213s1.783.57,4.179.472c-1.388,1.955-2.193,3.515-1.881,3.761.293.232,1.494-.77,2.957-2.4.138,2.184.459,3.715.833,3.715.408,0,.753-1.822.866-4.325,2.035,1.463,3.678,2.322,3.931,2s-.858-1.6-2.606-3.141C502.142,554.92,503.767,554.437,503.731,554.049Z" transform="translate(-323.3 -323.895)"/><path class="n" d="M537.731,554.049c-.037-.395-1.783-.57-4.179-.472,1.388-1.955,2.193-3.515,1.881-3.761-.293-.232-1.494.771-2.957,2.4-.138-2.184-.459-3.715-.833-3.715-.408,0-.753,1.822-.866,4.325-2.035-1.463-3.678-2.322-3.931-2s.858,1.6,2.607,3.141c-2.307.342-3.933.826-3.9,1.213s1.783.57,4.179.472c-1.388,1.955-2.193,3.515-1.881,3.761.293.232,1.494-.77,2.957-2.4.138,2.184.459,3.715.833,3.715.408,0,.753-1.822.866-4.325,2.035,1.463,3.678,2.322,3.931,2s-.858-1.6-2.607-3.141C536.142,554.92,537.767,554.437,537.731,554.049Z" transform="translate(-341.904 -323.895)"/><path class="n" d="M571.731,554.049c-.037-.395-1.783-.57-4.179-.472,1.388-1.955,2.193-3.515,1.881-3.761-.293-.232-1.495.771-2.957,2.4-.138-2.184-.459-3.715-.833-3.715-.408,0-.753,1.822-.866,4.325-2.035-1.463-3.678-2.322-3.931-2s.858,1.6,2.607,3.141c-2.307.342-3.933.826-3.9,1.213s1.783.57,4.179.472c-1.388,1.955-2.193,3.515-1.881,3.761.294.232,1.495-.77,2.957-2.4.138,2.184.459,3.715.833,3.715.408,0,.753-1.822.866-4.325,2.035,1.463,3.678,2.322,3.931,2s-.858-1.6-2.607-3.141C570.142,554.92,571.767,554.437,571.731,554.049Z" transform="translate(-360.507 -323.895)"/><path class="n" d="M605.731,554.049c-.037-.395-1.783-.57-4.179-.472,1.388-1.955,2.193-3.515,1.881-3.761-.293-.232-1.494.771-2.957,2.4-.138-2.184-.459-3.715-.833-3.715-.408,0-.753,1.822-.866,4.325-2.035-1.463-3.678-2.322-3.931-2s.858,1.6,2.607,3.141c-2.307.342-3.933.826-3.9,1.213s1.783.57,4.179.472c-1.388,1.955-2.193,3.515-1.881,3.761.293.232,1.494-.77,2.957-2.4.138,2.184.459,3.715.833,3.715.408,0,.753-1.822.866-4.325,2.035,1.463,3.678,2.322,3.931,2s-.858-1.6-2.607-3.141C604.142,554.92,605.767,554.437,605.731,554.049Z" transform="translate(-379.111 -323.895)"/><path class="n" d="M639.731,554.049c-.037-.395-1.783-.57-4.179-.472,1.388-1.955,2.193-3.515,1.881-3.761-.293-.232-1.495.771-2.957,2.4-.138-2.184-.459-3.715-.833-3.715-.408,0-.753,1.822-.866,4.325-2.035-1.463-3.678-2.322-3.931-2s.858,1.6,2.607,3.141c-2.307.342-3.933.826-3.9,1.213s1.783.57,4.179.472c-1.388,1.955-2.193,3.515-1.881,3.761.294.232,1.495-.77,2.957-2.4.138,2.184.459,3.715.833,3.715.408,0,.753-1.822.866-4.325,2.035,1.463,3.678,2.322,3.931,2s-.858-1.6-2.607-3.141C638.142,554.92,639.767,554.437,639.731,554.049Z" transform="translate(-397.714 -323.895)"/><path class="i" d="M548.636,500.691s-1.306,17.241,4.963,18.024.522-19.592.522-19.592Z" transform="translate(-354.471 -296.879)"/><path class="k" d="M548.869,346.835l-1.829.522s-7.575,60.6-2.612,72.359c0,0,5.224-2.873,7.837-2.351l4.18-49.371Z" transform="translate(-351.307 -213.552)"/></g></svg>