<svg xmlns="http://www.w3.org/2000/svg" width="81" height="81.019" viewBox="0 0 81 81.019"><defs><style>.a{fill:#9c6;stroke:#9c6;stroke-linejoin:round;}</style></defs><g transform="translate(0.479 0.519)"><g transform="translate(0.021 0)"><path class="a" d="M292.627,286.627a10.155,10.155,0,1,0-11.138,0c-7.573,2.317-13.491,9-13.491,19.48H306.12C306.12,295.757,300.324,288.981,292.627,286.627ZM279.4,278.14a7.656,7.656,0,1,1,7.656,7.656A7.656,7.656,0,0,1,279.4,278.14Zm-8.859,25.467a16.561,16.561,0,0,1,33.029,0Z" transform="translate(-226.12 -226.106)"/><path class="a" d="M24.65,286.627a10.155,10.155,0,1,0-11.138,0c-7.573,2.317-13.491,9-13.491,19.479H38.143C38.143,295.757,32.346,288.981,24.65,286.627ZM11.426,278.14a7.656,7.656,0,1,1,7.656,7.656A7.656,7.656,0,0,1,11.426,278.14ZM2.568,303.607a16.561,16.561,0,0,1,33.029,0Z" transform="translate(-0.021 -226.106)"/><path class="a" d="M158.638,18.649a10.155,10.155,0,1,0-11.138,0c-7.573,2.317-13.491,9-13.491,19.48h38.122C172.131,27.779,166.335,21,158.638,18.649Zm-13.224-8.487a7.656,7.656,0,1,1,7.656,7.656A7.656,7.656,0,0,1,145.414,10.162Zm-8.859,25.467a16.561,16.561,0,0,1,33.029,0Z" transform="translate(-113.07 0)"/></g></g></svg>