<svg xmlns="http://www.w3.org/2000/svg" width="15.238" height="16" viewBox="0 0 15.238 16"><defs><style>.a{fill:#9c6;}</style></defs><g transform="translate(0)"><g transform="translate(0)"><path class="a" d="M13.007,9.851a7.59,7.59,0,0,0-2.9-1.816,4.4,4.4,0,1,0-4.984,0A7.631,7.631,0,0,0,0,15.238H1.19a6.429,6.429,0,0,1,12.857,0h1.19A7.569,7.569,0,0,0,13.007,9.851ZM7.619,7.619A3.214,3.214,0,1,1,10.833,4.4,3.218,3.218,0,0,1,7.619,7.619Z" transform="translate(0 0)"/></g><rect class="a" width="15.238" height="0.952" transform="translate(0 15.048)"/></g></svg>