<svg xmlns="http://www.w3.org/2000/svg" width="80" height="84" viewBox="0 0 80 84"><defs><style>.a{fill:#9c6;}</style></defs><g transform="translate(0)"><path class="a" d="M68.284,51.716a39.847,39.847,0,0,0-15.2-9.534,23.125,23.125,0,1,0-26.168,0A40.063,40.063,0,0,0,0,80H6.25a33.75,33.75,0,1,1,67.5,0H80A39.739,39.739,0,0,0,68.284,51.716ZM40,40A16.875,16.875,0,1,1,56.875,23.125,16.894,16.894,0,0,1,40,40Z" transform="translate(0)"/></g><rect class="a" width="80" height="5" transform="translate(0 79)"/></svg>